<?xml version="1.0" encoding="UTF-8"?>
<svg id="Layer_2" data-name="Layer 2" xmlns="http://www.w3.org/2000/svg" viewBox="0 0 289 283.58">
  <defs>
    <style>
      .cls-1 {
        fill: #ffb3b3;
      }

      .cls-1, .cls-2 {
        stroke-width: 0px;
      }

      .cls-2 {
        fill: #002a66;
      }
    </style>
  </defs>
  <g id="Layer_1-2" data-name="Layer 1">
    <g>
      <path class="cls-2" d="m144.51,0C62.12,0,0,60.06,0,139.7c0,38,14.52,73.09,40.87,98.92l4.25,44.96,49.43-12.22c15.81,5.31,32.61,7.99,49.97,7.99,82.37,0,144.49-60.04,144.49-139.66S226.88,0,144.51,0Zm0,217.87c-43.06,0-75.53-33.6-75.53-78.17s32.47-78.74,75.53-78.74,75.51,34.59,75.51,78.74-32.45,78.17-75.51,78.17Z"/>
      <path class="cls-1" d="m177.35,154.17l20.12-.06c-4.9,25.53-26.63,44.41-52.98,44.41-26.34,0-48.08-18.88-52.98-44.41l20.13.06h65.69Z"/>
    </g>
  </g>
</svg>