
<svg version="1.1" xmlns="http://www.w3.org/2000/svg" width="3712" height="673">
<path d="M0 0 C763.95 0 1527.9 0 2315 0 C2315 12.87 2315 25.74 2315 39 C1551.05 39 787.1 39 0 39 C0 26.13 0 13.26 0 0 Z " fill="#3063AC" transform="translate(116,581)"/>
<path d="M0 0 C1.00800883 -0.00551503 1.00800883 -0.00551503 2.03638148 -0.01114148 C4.26919641 -0.02208021 6.50196466 -0.02600526 8.73480225 -0.02983093 C10.34358362 -0.03610289 11.95236357 -0.04275033 13.56114197 -0.04974365 C18.82702645 -0.07069527 24.09291093 -0.08113611 29.35882568 -0.09111023 C31.17723353 -0.09516079 32.99564122 -0.0992778 34.81404877 -0.10346031 C43.3575542 -0.1224906 51.90105111 -0.13672745 60.44457364 -0.14507228 C70.28416309 -0.15484384 80.12352754 -0.18117036 89.96303773 -0.22157317 C97.58452103 -0.25178768 105.20593999 -0.26654611 112.82748199 -0.26985329 C117.37235639 -0.27219717 121.91698982 -0.28107153 126.46179962 -0.30631447 C130.73992715 -0.32969468 135.01765668 -0.33378876 139.29583168 -0.32355309 C140.85863639 -0.32306007 142.42146138 -0.3293109 143.98420525 -0.34310913 C157.25279435 -0.45363353 167.04747095 1.34463228 176.80413818 10.77607727 C184.79062555 19.52661487 186.5672909 28.3463545 186.26898193 39.94795227 C185.70638723 50.36868798 180.46158255 57.18549777 172.96820068 64.14717102 C166.4233259 69.30337311 159.63997007 71.39624477 151.27375793 71.39872742 C149.96623566 71.40411026 148.65871338 71.4094931 147.31156921 71.41503906 C145.87948565 71.41102548 144.44740252 71.40685458 143.01531982 71.40254211 C141.49346733 71.40529498 139.97161628 71.40897668 138.44976807 71.41351318 C135.18028381 71.42160454 131.91086787 71.42379873 128.64137459 71.42156601 C123.45700175 71.4187209 118.27276389 71.43313204 113.08842468 71.45054626 C98.34841961 71.49745106 83.60842359 71.52148868 68.86834717 71.5280304 C60.72119139 71.53179866 52.57418849 71.54997157 44.42709821 71.58312476 C39.28907741 71.60318458 34.15145513 71.60578491 29.01341164 71.59484458 C25.79381201 71.59220976 22.57443719 71.6063755 19.35489655 71.62492561 C17.87967951 71.63018172 16.4044193 71.62886604 14.9292202 71.61989021 C0.6328175 71.54003315 -15.04091469 73.30234171 -26.20758057 83.04560852 C-36.07588052 93.04019385 -37.28705637 106.22043377 -37.28057861 119.6073761 C-37.14493836 129.8213796 -36.67140826 142.50756207 -29.03179932 150.14717102 C-22.39254222 154.81111195 -15.19291877 155.27497024 -7.26841736 155.4561615 C-6.51188751 155.47640373 -5.75535767 155.49664596 -4.97590268 155.51750159 C-2.46818535 155.58239813 0.03962617 155.64000602 2.54754639 155.69648743 C3.42464472 155.71738096 4.30174306 155.73827448 5.20542014 155.75980115 C24.71690826 156.21982887 44.22662306 156.31237745 63.7427578 156.34640121 C69.88045726 156.3574014 76.01810764 156.37770335 82.15577698 156.39952087 C99.57198897 156.46044787 116.9881904 156.5155703 134.40447998 156.54853821 C144.10400372 156.56697467 153.80343708 156.59598616 163.50289422 156.63654292 C168.59637018 156.65739009 173.68973378 156.67303872 178.78325462 156.67535019 C226.67832241 156.70328509 226.67832241 156.70328509 246.84320068 162.95967102 C247.70630859 163.21828918 248.5694165 163.47690735 249.4586792 163.74336243 C279.09229847 172.82458849 304.9006003 189.45102125 320.20648193 217.08076477 C337.08186526 248.95475469 339.3654756 287.74972964 328.96820068 322.14717102 C320.11712198 350.79034128 302.18514579 372.59977789 275.78070068 386.86982727 C255.89185124 396.59050243 234.71341318 399.34951712 212.80828857 399.1686554 C209.7501178 399.15453532 206.69195656 399.14726714 203.63375854 399.14204407 C202.38699971 399.13987845 202.38699971 399.13987845 201.11505383 399.13766909 C189.70258237 399.12998716 178.29148404 399.28165487 166.88006592 399.42256165 C165.69530202 399.43705132 164.51053812 399.451541 163.28987229 399.46646976 C157.00863606 399.54362338 150.72742449 399.62258464 144.44622612 399.70275879 C137.03626819 399.79730215 129.62627722 399.88892905 122.21627212 399.9796806 C110.1002804 400.12808241 97.9843055 400.27780655 85.86834717 400.4289093 C85.14889099 400.43788115 84.42943482 400.44685299 83.68817694 400.45609671 C75.69807741 400.55577231 67.70798306 400.6558536 59.71789551 400.75648499 C59.00296955 400.76548843 58.28804359 400.77449187 57.55145321 400.78376815 C56.48018584 400.79725942 56.48018584 400.79725942 55.38727671 400.81102324 C53.9470476 400.82916034 52.50681848 400.84729685 51.06658936 400.86543274 C49.9992459 400.87887422 49.9992459 400.87887422 48.91033994 400.89258724 C36.85517735 401.04432694 24.79998147 401.19323375 12.74475819 401.34007215 C6.03813358 401.42186206 -0.66846725 401.50501764 -7.37503242 401.59158325 C-22.12848527 401.78150816 -36.88186597 401.94881387 -51.63597488 402.07878113 C-56.74680845 402.12417208 -61.85747542 402.17869917 -66.96815109 402.23899841 C-73.57152511 402.3163876 -80.17485337 402.37010128 -86.77857387 402.41026783 C-89.26940822 402.42864439 -91.7602028 402.45392154 -94.2508899 402.48665142 C-97.69425797 402.53056863 -101.136883 402.54873645 -104.58049011 402.56086731 C-106.08189562 402.58870096 -106.08189562 402.58870096 -107.61363256 402.6170969 C-118.65618458 402.59636107 -126.95810752 399.16423976 -134.86773682 391.51826477 C-142.77646938 382.85292061 -144.69560998 374.00584878 -144.41461182 362.49482727 C-143.89561294 353.95374871 -140.200038 346.03503522 -134.03179932 340.14717102 C-124.97699308 333.10840609 -116.91456734 330.71469042 -105.59327698 330.48298645 C-103.94957468 330.4339005 -103.94957468 330.4339005 -102.27266628 330.38382292 C-98.85920617 330.28783625 -95.44594756 330.21390267 -92.03179932 330.14717102 C-90.49189665 330.11488624 -90.49189665 330.11488624 -88.92088485 330.08194923 C-81.63037082 329.935798 -74.33967849 329.85084915 -67.04815674 329.77412415 C-64.66221768 329.74634988 -62.27628229 329.71825862 -59.89035034 329.68988037 C-54.79772724 329.62998494 -49.70508596 329.57229681 -44.61241722 329.51641846 C-37.17579575 329.43481991 -29.73922635 329.34915535 -22.30266313 329.26243001 C-10.13110636 329.12057692 2.04048242 328.98170636 14.21209717 328.84492493 C30.14405458 328.66587267 46.07598418 328.48447655 62.00789857 328.30163765 C64.85052068 328.26901596 67.69314328 328.23643793 70.53576636 328.20390129 C85.77956722 328.02940733 101.02334146 327.85295056 116.26705933 327.67134094 C117.60629639 327.65540576 118.94553348 327.63947335 120.28477061 327.62354374 C128.10693657 327.53049926 128.10693657 327.53049926 135.92909837 327.43710518 C150.14382412 327.26729942 164.35848625 327.10976007 178.57367039 326.98383331 C184.33032227 326.93255743 190.08686605 326.87243295 195.84339041 326.80849886 C199.38935166 326.76964245 202.93518426 326.73552168 206.48130226 326.71490479 C210.17470665 326.69146918 213.86753396 326.65102899 217.56072998 326.6061554 C219.09056424 326.6037233 219.09056424 326.6037233 220.65130424 326.60124207 C230.93010877 326.43862064 242.23007724 324.28516046 250.09710693 317.24092102 C260.17219984 306.70196564 262.36754942 293.40990481 262.28070068 279.27217102 C262.27506104 278.3083551 262.26942139 277.34453918 262.26361084 276.35151672 C262.05218243 263.93690126 259.67928509 254.59371674 251.25726318 245.24873352 C236.10614703 230.60904745 212.17536628 228.97366214 192.30194092 229.04951477 C190.82038931 229.05143716 189.33883704 229.05289944 187.85728455 229.05393982 C184.67083461 229.05709356 181.48441142 229.06335371 178.29797173 229.07200623 C173.20587757 229.08566926 168.11379198 229.09145597 163.02168274 229.09614563 C151.24160268 229.10815903 139.46154443 229.1298744 127.68148041 229.15237427 C114.40075582 229.17772808 101.12003936 229.19870024 87.83929443 229.20967102 C86.9810921 229.21046032 86.12288978 229.21124962 85.23868132 229.21206284 C59.52798031 229.23404336 33.84102985 229.02904296 8.13877869 228.3000679 C3.16485964 228.16307716 -1.80154906 228.10827662 -6.77700806 228.15858459 C-35.1101393 228.01516454 -61.5239368 220.20694349 -82.21148682 200.12373352 C-94.4502339 187.61946786 -101.85487402 170.9411561 -106.03179932 154.14717102 C-106.27954102 153.15862122 -106.27954102 153.15862122 -106.5322876 152.15010071 C-109.21031111 140.74565311 -109.34061871 129.17813339 -109.40679932 117.52217102 C-109.41474518 116.7898526 -109.42269104 116.05753418 -109.43087769 115.30302429 C-109.69098368 84.06800995 -99.79200373 55.58949962 -78.42633057 32.54951477 C-58.17183097 12.22893197 -28.72109678 0.10262231 0 0 Z " fill="#919191" transform="translate(747.0317993164063,-0.1471710205078125)"/>
<path d="M0 0 C1.41158396 -0.0030235 2.82316629 -0.00691398 4.23474574 -0.01159257 C8.10022847 -0.02185695 11.96561828 -0.01969466 15.83110857 -0.01541197 C20.00590542 -0.01294169 24.18068007 -0.02196306 28.35546875 -0.02944946 C36.53197604 -0.04219339 44.70845049 -0.04399026 52.88496605 -0.0416492 C59.53792572 -0.03986432 66.19087544 -0.04161935 72.84383392 -0.04587364 C73.79169981 -0.04646883 74.7395657 -0.04706402 75.7161548 -0.04767724 C77.6420359 -0.04888905 79.56791701 -0.05010319 81.49379811 -0.05131962 C99.55533719 -0.06219551 117.61685761 -0.06003336 135.67839774 -0.05393478 C152.16697701 -0.04877447 168.65549703 -0.05999751 185.14406458 -0.07903299 C202.09912607 -0.09845579 219.0541596 -0.10665906 236.00923228 -0.10290974 C245.51800785 -0.10100328 255.02673312 -0.10343019 264.53549957 -0.11762428 C272.6375138 -0.12959632 280.73944682 -0.13087879 288.84146228 -0.11883412 C292.96749126 -0.11298389 297.09337215 -0.11173734 301.21939087 -0.12383652 C342.8918039 -0.23753707 378.06645217 6.57586215 409.11297607 36.26069641 C409.7858667 36.87042297 410.45875732 37.48014954 411.15203857 38.10835266 C432.83568651 58.45297055 444.8880206 89.74610794 446.23895264 118.98750305 C447.28754368 156.99892821 437.05187783 190.50833701 410.85174561 218.56660461 C391.05075338 238.99714436 361.18240955 254.37809997 332.40690136 255.35231221 C329.19145962 255.38641621 325.9773954 255.38913863 322.76177979 255.38095093 C320.91392812 255.38223256 320.91392812 255.38223256 319.02874613 255.38354009 C315.62632712 255.3848982 312.22396615 255.381789 308.82155418 255.37676203 C305.1461322 255.37243128 301.47071191 255.37390582 297.79528809 255.37466431 C291.43297402 255.37518788 285.07067024 255.37205849 278.70835876 255.36642647 C269.5095992 255.35828889 260.3108446 255.35569393 251.11208183 255.35443848 C236.18659584 255.35225151 221.26111534 255.34560104 206.33563232 255.33613586 C191.83953885 255.32695257 177.34344687 255.31987622 162.84735107 255.31562805 C161.95335419 255.31536533 161.0593573 255.3151026 160.1382696 255.31483192 C155.65321331 255.31352685 151.16815701 255.31226315 146.6831007 255.31102002 C109.49305529 255.30065846 72.30301611 255.28304979 35.11297607 255.26069641 C35.12185852 256.55393829 35.13074097 257.84718018 35.13989258 259.17961121 C35.22111922 271.39084764 35.28100917 283.60202896 35.32022476 295.81347466 C35.34106394 302.09091868 35.36931501 308.36814391 35.41473389 314.64546204 C35.45832178 320.70793421 35.48214077 326.77019644 35.49248505 332.83281326 C35.49985314 335.14118375 35.51424118 337.44954327 35.5358963 339.75782394 C35.56510163 343.00105515 35.56892483 346.24342825 35.56707764 349.48677063 C35.58145874 350.43264542 35.59583984 351.3785202 35.61065674 352.35305786 C35.54454712 363.14036808 31.22758741 371.92235594 23.98797607 379.82319641 C15.83925708 387.76071751 6.62132398 389.54020623 -4.31207275 389.58198547 C-10.52087579 389.48401097 -15.43034824 388.32540467 -20.88702393 385.26069641 C-21.91827393 384.70382141 -22.94952393 384.14694641 -24.01202393 383.57319641 C-32.06113076 377.09891483 -37.75552292 369.47116634 -39.88702393 359.26069641 C-39.97980789 357.36374468 -40.01788412 355.46383559 -40.021245 353.56461906 C-40.02570285 352.39588434 -40.03016069 351.22714962 -40.03475362 350.02299869 C-40.03456926 348.73800357 -40.0343849 347.45300846 -40.03419495 346.1290741 C-40.03749478 344.75093963 -40.04122061 343.37280612 -40.04533643 341.99467385 C-40.05535093 338.20348868 -40.05907233 334.41231935 -40.06172574 330.62112284 C-40.06563042 326.53370396 -40.07520864 322.4462976 -40.0839386 318.35888672 C-40.10369832 308.48574743 -40.11376857 298.61260713 -40.12266639 288.73945302 C-40.12705007 284.08950146 -40.13241667 279.43955103 -40.13765526 274.78960037 C-40.154667 259.33125736 -40.16916109 243.87291506 -40.176404 228.41456413 C-40.17831388 224.40331395 -40.18023421 220.39206376 -40.18218994 216.3808136 C-40.18267368 215.38384276 -40.18315742 214.38687192 -40.18365582 213.35968985 C-40.19195582 197.21004798 -40.21729248 181.06048018 -40.24977062 164.91087066 C-40.28284631 148.32889228 -40.30085322 131.74695154 -40.30404824 115.16494 C-40.30621286 105.85536997 -40.31495445 96.54590796 -40.34050941 87.23637009 C-40.36222336 79.3078032 -40.37026341 71.37937059 -40.36054263 63.45077734 C-40.35599994 59.4069736 -40.35788217 55.36344686 -40.37730408 51.31968117 C-40.39495108 47.61337934 -40.39392596 43.90755627 -40.37840679 40.20124926 C-40.37491357 38.23442937 -40.39104556 36.26760438 -40.40801126 34.30085456 C-40.33669392 24.4572495 -38.47276571 16.13250424 -31.58233643 8.79194641 C-22.18181229 0.30115042 -12.16299072 -0.03531804 0 0 Z M30.11297607 60.26069641 C30.11297607 103.49069641 30.11297607 146.72069641 30.11297607 191.26069641 C81.44304111 191.37728244 81.44304111 191.37728244 132.77313232 191.45600891 C139.70298297 191.46383967 146.63283325 191.47192139 153.56268311 191.48042297 C154.86538826 191.48200547 154.86538826 191.48200547 156.19441068 191.48361993 C170.1909439 191.50098801 184.18741098 191.53250711 198.18390507 191.5693076 C212.56225599 191.60679506 226.94057242 191.62894872 241.3189702 191.63705039 C250.18175694 191.64252203 259.04435674 191.65976488 267.9070859 191.69236228 C273.99553217 191.71360669 280.08388268 191.71987416 286.17236328 191.71470192 C289.67818471 191.71215546 293.18368091 191.71588739 296.68944359 191.73751831 C319.39473314 191.85694736 338.63264403 190.91605217 355.90203857 174.46382141 C356.99645264 173.37327454 356.99645264 173.37327454 358.11297607 172.26069641 C358.67758545 171.71929016 359.24219482 171.17788391 359.82391357 170.62007141 C371.21114278 158.69059319 374.69364739 141.85611996 374.55047607 125.94819641 C374.54290283 124.76483704 374.53532959 123.58147766 374.52752686 122.36225891 C374.17670462 103.69954019 368.33522551 89.52983326 355.11297607 76.26069641 C354.57156982 75.69608704 354.03016357 75.13147766 353.47235107 74.54975891 C341.46705668 63.09015971 324.5030963 59.77216924 308.50218201 59.89993286 C307.30276075 59.89736959 306.10333949 59.89480631 304.86757213 59.89216536 C301.57894981 59.88811426 298.2906923 59.89735149 295.00211298 59.91249955 C291.44061861 59.92556158 287.87913857 59.92106333 284.31762695 59.91879272 C278.16053517 59.91722636 272.00353942 59.92656854 265.84647179 59.94350624 C256.94460926 59.96797863 248.04279275 59.9757099 239.14090023 59.97947022 C224.69512386 59.98602183 210.24939857 60.00594784 195.8036499 60.03437805 C181.77826182 60.06195211 167.75288772 60.08313484 153.72747803 60.09590149 C152.85286861 60.09670548 151.9782592 60.09750947 151.07714647 60.09833783 C144.23623379 60.10457679 137.39532081 60.11044732 130.55440772 60.11620152 C97.07388361 60.14445767 63.59348749 60.20482313 30.11297607 60.26069641 Z " fill="#107EC1" transform="translate(2612.8870239257813,1.7393035888671875)"/>
<path d="M0 0 C1.84475776 -0.0029991 3.6895149 -0.00640333 5.53427124 -0.01017761 C10.50557002 -0.01894473 15.47685155 -0.02135261 20.44815731 -0.0219934 C23.5643907 -0.02270797 26.6806198 -0.02484994 29.79685211 -0.02749062 C40.69757868 -0.03671943 51.59829309 -0.04082854 62.49902344 -0.04003906 C72.61345066 -0.03943871 82.72782447 -0.04998855 92.84223819 -0.06578273 C101.56629901 -0.0789138 110.2903425 -0.08422064 119.01441312 -0.08358365 C124.20710462 -0.08333033 129.39974858 -0.08608915 134.59243011 -0.0967617 C139.48124216 -0.1065372 144.36996208 -0.10645805 149.25877762 -0.09924507 C151.03794364 -0.09821091 152.8171157 -0.10049123 154.59627151 -0.10660553 C190.9968484 -0.22345458 222.29754389 8.74507217 248.77441406 34.60620117 C271.38730714 58.44676446 278.56377422 88.27137884 278.59082031 120.31713867 C278.59726546 122.13405456 278.60399502 123.95096946 278.61099243 125.7678833 C278.62287811 129.54978849 278.62668174 133.33160288 278.62548828 137.11352539 C278.62528424 141.93717484 278.6527132 146.76024082 278.6870327 151.58375168 C278.70934926 155.32603595 278.71332456 159.06818001 278.71226883 162.81052399 C278.71461272 164.58857505 278.72336714 166.3666307 278.73893356 168.14461517 C278.8997268 188.38307153 278.8997268 188.38307153 272.29003906 196.58276367 C271.6390625 197.09838867 270.98808594 197.61401367 270.31738281 198.14526367 C269.66898438 198.68151367 269.02058594 199.21776367 268.35253906 199.77026367 C257.46367004 206.90784634 240.92708126 204.31623885 228.46313477 204.35058594 C226.24964217 204.36018163 224.03615135 204.37019266 221.82266235 204.38058472 C215.80727792 204.40759971 209.7918858 204.42866485 203.77647424 204.4485867 C197.38345561 204.47069466 190.99045897 204.49801013 184.59745789 204.52464294 C173.78072106 204.56895536 162.9639765 204.60968514 152.1472168 204.64794922 C141.23183873 204.68656751 130.31647687 204.7279875 119.40112305 204.77294922 C118.739124 204.77567292 118.07712495 204.77839663 117.39506532 204.78120287 C116.05962209 204.78669755 114.72417887 204.79219278 113.38873564 204.79768857 C50.01059399 205.05847924 -13.3664339 205.2197699 -76.74511719 205.14526367 C-76.45425295 207.04853572 -76.15591579 208.95066659 -75.85449219 210.85229492 C-75.68916992 211.9116626 -75.52384766 212.97103027 -75.35351562 214.0625 C-73.25758381 224.68261676 -66.94518928 234.23991452 -58.25292969 240.57495117 C-49.26586824 246.20236348 -41.301068 248.27455784 -30.89746094 248.68041992 C-29.86080795 248.72215836 -28.82415497 248.76389679 -27.75608826 248.80690002 C-17.94294033 249.1650068 -8.12992156 249.29108119 1.68847656 249.39135742 C2.49695667 249.39975269 3.30543678 249.40814796 4.13841629 249.41679764 C11.70914497 249.4943305 19.27991709 249.5651623 26.85083008 249.62207031 C31.04128038 249.65398957 35.23155498 249.69523509 39.42186165 249.7422657 C40.99693735 249.75813209 42.5720525 249.77052312 44.14718437 249.7791729 C57.40761267 249.85329847 69.41458322 250.31967383 79.33691406 260.22338867 C85.92521821 268.15709388 87.88521052 275.68917319 87.59863281 285.93432617 C86.66630553 294.64311057 82.67596394 301.29726078 76.25488281 307.14526367 C68.22638572 313.24816378 60.93072349 314.44431103 51.02734375 314.43579102 C49.90445953 314.44250824 48.78157532 314.44922546 47.62466431 314.45614624 C43.912817 314.47513737 40.2011507 314.47905223 36.48925781 314.48120117 C33.89536465 314.4876325 31.30147222 314.49436111 28.70758057 314.50137329 C23.26369237 314.51335186 17.81987533 314.5171398 12.37597656 314.51586914 C6.12879037 314.51467401 -0.11804683 314.53565241 -6.36514497 314.56735647 C-12.41462209 314.59693918 -18.46393557 314.60383742 -24.51348114 314.60264969 C-27.06641811 314.60499114 -29.61935836 314.6137313 -32.17224884 314.62931442 C-61.59832551 314.79199194 -89.0756963 309.109594 -111.74511719 289.14526367 C-112.97294922 288.13206055 -112.97294922 288.13206055 -114.22558594 287.09838867 C-134.44496133 269.91975655 -147.25027927 243.43867546 -149.74511719 217.14526367 C-149.88528361 214.03029115 -149.90205733 210.91982068 -149.90625 207.80200195 C-149.9112149 206.90315781 -149.91617981 206.00431366 -149.92129517 205.07823181 C-149.93581767 202.12400524 -149.94270452 199.16983248 -149.94824219 196.21557617 C-149.95106956 195.19728603 -149.95389694 194.1789959 -149.95681 193.12984848 C-149.97176747 187.73394261 -149.9810169 182.33806321 -149.98535156 176.94213867 C-149.9908108 171.41748896 -150.01479478 165.89308885 -150.04332352 160.36851692 C-150.0621195 156.07861671 -150.06716457 151.78877439 -150.06868744 147.49883652 C-150.07167973 145.46504232 -150.07958951 143.43124829 -150.09287262 141.39749527 C-150.30481993 106.4325996 -141.07374667 73.93639846 -117.74511719 47.14526367 C-116.936875 46.19264648 -116.12863281 45.2400293 -115.29589844 44.25854492 C-93.11714971 18.67529026 -60.12597397 3.22304804 -26.55340576 0.60746765 C-17.70229481 0.00120091 -8.86847983 -0.00290845 0 0 Z M-50.74511719 79.14526367 C-51.52886719 79.76401367 -52.31261719 80.38276367 -53.12011719 81.02026367 C-65.32630582 91.24707037 -73.43945693 106.36969347 -75.74511719 122.14526367 C-75.74511719 125.11526367 -75.74511719 128.08526367 -75.74511719 131.14526367 C17.97488281 131.14526367 111.69488281 131.14526367 208.25488281 131.14526367 C208.25488281 112.36554891 201.16263051 96.75590852 188.25488281 83.14526367 C175.07712179 70.48121198 157.59248394 64.05161547 139.43981934 64.00482178 C138.79105347 64.00185066 138.14228761 63.99887953 137.47386217 63.99581838 C135.31947541 63.98720949 133.16514473 63.98562979 131.01074219 63.98413086 C129.45771163 63.97949699 127.90468219 63.97447158 126.35165405 63.96908569 C122.14458442 63.95601097 117.93753071 63.94952592 113.73044395 63.94507504 C111.09552678 63.94213521 108.46061387 63.93802863 105.82569885 63.93357086 C97.56303285 63.91990642 89.30037669 63.91023566 81.03770018 63.90636897 C71.5349525 63.90189628 62.03234924 63.8843807 52.52964544 63.85536838 C45.16202428 63.83366432 37.79444347 63.82365999 30.42679071 63.82232785 C26.037212 63.82128568 21.64776922 63.81550483 17.25822449 63.79750824 C13.12130339 63.7808768 8.9846182 63.77894407 4.84767532 63.78764725 C3.34138476 63.78840974 1.83508071 63.78418084 0.32882309 63.774189 C-18.61226439 63.65605782 -35.58858718 67.17958209 -50.74511719 79.14526367 Z " fill="#919191" transform="translate(1260.7451171875,76.854736328125)"/>
<path d="M0 0 C0.91652344 0.68255859 0.91652344 0.68255859 1.8515625 1.37890625 C2.67527344 1.98089844 3.49898437 2.58289063 4.34765625 3.203125 C7.02066419 5.52584797 8.67031308 7.7555083 10.5390625 10.75390625 C11.12042969 11.66914063 11.70179688 12.584375 12.30078125 13.52734375 C16.71403958 21.64240314 17.00098629 30.07289717 16.98527527 39.09700012 C16.98754083 40.05808282 16.98980638 41.01916552 16.99214059 42.00937194 C16.99845637 45.22085988 16.99765276 48.43230537 16.99682617 51.64379883 C16.99981932 53.95057225 17.00322221 56.25734517 17.00700378 58.56411743 C17.01583584 64.82711114 17.01818167 71.09009119 17.01881957 77.35309052 C17.01953096 81.27182485 17.02166705 85.19055571 17.02431679 89.10928917 C17.03309279 102.09174672 17.03773682 115.07419459 17.03698631 128.05665497 C17.03692638 129.10550163 17.03692638 129.10550163 17.03686523 130.17553711 C17.03682435 130.87563271 17.03678347 131.57572831 17.03674135 132.29703894 C17.0363358 143.6170357 17.0458828 154.93699906 17.0600036 166.25698618 C17.07442096 177.90772545 17.08108828 189.55844696 17.08040982 201.20919532 C17.08015584 207.7389082 17.08295126 214.26858333 17.09358788 220.79828835 C17.1033349 226.95017561 17.10330313 233.10198956 17.09607124 239.25387955 C17.0950333 241.49906841 17.09734072 243.74426199 17.1034317 245.98944283 C17.16688294 271.02061234 14.91707899 293.65596783 3.8515625 316.37890625 C3.12453125 317.87744141 3.12453125 317.87744141 2.3828125 319.40625 C-11.91053021 347.07974964 -37.67309895 367.8521218 -67.1484375 377.37890625 C-77.38483068 380.38668914 -87.3667413 382.52847617 -98.04946899 382.52607727 C-98.93478219 382.52975396 -99.82009539 382.53343065 -100.73223627 382.53721875 C-103.69340434 382.54821525 -106.65453726 382.55209268 -109.61572266 382.5559082 C-111.74176646 382.56217625 -113.86780918 382.56882335 -115.99385071 382.57582092 C-122.97505942 382.59683545 -129.95626827 382.60722569 -136.9375 382.6171875 C-139.34726345 382.62123701 -141.75702679 382.62535399 -144.16679001 382.62953758 C-155.49799788 382.64858904 -166.82919926 382.66281624 -178.16042006 382.67114955 C-191.2022536 382.68090099 -204.24391647 382.70716598 -217.28568995 382.74765044 C-227.38795216 382.77792336 -237.49016579 382.79262926 -247.59247243 382.79593056 C-253.61483235 382.79826966 -259.63700995 382.80707967 -265.65932083 382.83239174 C-271.33767775 382.8558715 -277.01573494 382.85982656 -282.69412804 382.84963036 C-284.76271633 382.84913957 -286.83132039 382.85532247 -288.89986229 382.8691864 C-320.27971676 383.06749546 -347.90658684 374.51580353 -372.1484375 354.37890625 C-372.97085938 353.70988281 -373.79328125 353.04085938 -374.640625 352.3515625 C-380.59593031 347.31325057 -385.41451466 341.56003202 -390.1484375 335.37890625 C-390.75558594 334.59902344 -391.36273437 333.81914062 -391.98828125 333.015625 C-409.58212142 309.27790414 -414.80772065 281.86706496 -414.6796875 252.96484375 C-414.6823926 250.77210316 -414.68628338 248.57936375 -414.69128418 246.3866272 C-414.69712895 241.82664387 -414.68877866 237.26697729 -414.66992188 232.70703125 C-414.64710844 226.913539 -414.6603034 221.12078737 -414.68421173 215.32732201 C-414.69878343 210.81092926 -414.69401251 206.29470724 -414.68370056 201.77830887 C-414.68106598 199.64404839 -414.68418525 197.5097715 -414.69361877 195.37553024 C-414.79859226 164.9744913 -406.75163344 139.476295 -385.2734375 117.19140625 C-380.58502664 112.61734687 -375.67743629 108.87396404 -370.1484375 105.37890625 C-369.26929687 104.80527344 -368.39015625 104.23164062 -367.484375 103.640625 C-354.00595469 95.26766693 -338.73959109 90.0914658 -323.1484375 87.37890625 C-322.20284186 87.21060366 -321.25724623 87.04230106 -320.28299618 86.86889839 C-308.10092909 84.97380835 -295.98336518 85.11182218 -283.67993164 85.15185547 C-281.23440048 85.15242052 -278.78886898 85.15210119 -276.34333801 85.15097046 C-271.10683831 85.15051742 -265.87038374 85.15612978 -260.63389778 85.16744614 C-253.0631007 85.1837963 -245.49232763 85.1889188 -237.9215148 85.19142212 C-225.6342676 85.19578441 -213.34704715 85.20905343 -201.05981445 85.22802734 C-189.13370903 85.2464243 -177.20761091 85.26056206 -165.28149414 85.26904297 C-164.17624306 85.26983114 -164.17624306 85.26983114 -163.04866368 85.27063523 C-159.35167357 85.27324557 -155.65468341 85.27577292 -151.95769322 85.27825904 C-121.35458883 85.29894582 -90.7515169 85.33428119 -60.1484375 85.37890625 C-60.15731995 84.62659225 -60.16620239 83.87427826 -60.175354 83.09916687 C-60.2559243 75.9652997 -60.31661523 68.83165707 -60.35568619 61.69745159 C-60.37644919 58.03076759 -60.40455594 54.36446349 -60.45019531 50.69799805 C-60.4940619 47.15124153 -60.51765918 43.60484748 -60.52794647 40.05784035 C-60.53879671 38.06445471 -60.56995574 36.07121232 -60.60162354 34.07804871 C-60.60456307 22.00896738 -58.0497632 13.32409008 -49.56640625 4.60546875 C-35.55915926 -8.29296547 -16.17197486 -10.79319027 0 0 Z M-333.1484375 161.37890625 C-340.59749995 171.1497544 -342.29441599 181.95591173 -342.30957031 193.95751953 C-342.31453522 194.90472366 -342.31950012 195.8519278 -342.32461548 196.82783508 C-342.33918131 199.95163713 -342.34603067 203.07538836 -342.3515625 206.19921875 C-342.3573196 208.38150025 -342.36307726 210.56378174 -342.36883545 212.74606323 C-342.37933032 217.32062006 -342.38518254 221.8951594 -342.38867188 226.46972656 C-342.39414599 232.30665741 -342.41815746 238.14335375 -342.44664383 243.98021126 C-342.46535016 248.4894781 -342.47048011 252.99868943 -342.47200775 257.50799179 C-342.475018 259.65838779 -342.48299091 261.8087832 -342.49619293 263.95914078 C-342.59765683 281.75965674 -341.77695804 297.25631213 -329.1484375 311.12890625 C-319.07313818 320.60853754 -306.16073537 324.7087403 -292.55412292 324.63960266 C-291.33022267 324.64534098 -291.33022267 324.64534098 -290.08159715 324.65119523 C-287.37358529 324.66143521 -284.66578905 324.65755034 -281.95776367 324.65356445 C-280.0054861 324.65791595 -278.05321024 324.66310056 -276.10093689 324.66905212 C-270.81568935 324.68240712 -265.53051348 324.68302462 -260.24525237 324.68048882 C-255.82452711 324.67941661 -251.40381621 324.68430896 -246.98309404 324.68909425 C-236.54853282 324.70017761 -226.11400761 324.7006336 -215.67944336 324.69458008 C-204.93501897 324.68854236 -194.19072561 324.70084891 -183.44632357 324.72215015 C-174.20355974 324.73979676 -164.9608375 324.74576263 -155.71805745 324.7425124 C-150.20576717 324.74070408 -144.69357034 324.74329051 -139.18129539 324.75722694 C-133.99458747 324.76985028 -128.80808294 324.76781866 -123.62137794 324.75481606 C-121.72520502 324.75246042 -119.82901759 324.75514836 -117.93286133 324.76343918 C-100.04899053 324.83595516 -85.98610489 322.64825141 -72.51171875 309.94921875 C-61.3417855 297.80076242 -59.66965364 283.01159461 -59.80786133 267.12158203 C-59.80871042 265.75992858 -59.80822697 264.39827376 -59.80653381 263.03662109 C-59.80568343 259.38868148 -59.82315122 255.74104611 -59.84425569 252.09317636 C-59.86318476 248.26288865 -59.86478557 244.43259168 -59.86833191 240.6022644 C-59.87760522 233.37072385 -59.90215414 226.1393216 -59.93238038 218.90784156 C-59.96607243 210.66585535 -59.98244737 202.42386206 -59.99746668 194.18182397 C-60.02870872 177.24743847 -60.08137601 160.31318705 -60.1484375 143.37890625 C-90.88389422 143.28754111 -121.6193197 143.21680845 -152.3548799 143.17464493 C-155.98829581 143.16964245 -159.62171145 143.16446513 -163.25512695 143.15917969 C-163.97843631 143.15813045 -164.70174566 143.1570812 -165.44697348 143.15600017 C-177.13941275 143.13862257 -188.83177288 143.10709958 -200.5241653 143.07029507 C-212.53286491 143.0328118 -224.54152325 143.01065484 -236.55027896 143.00255227 C-243.29070647 142.99756926 -250.03096938 142.98564306 -256.77133751 142.95598602 C-263.12178705 142.92874074 -269.47198444 142.92047978 -275.82248688 142.92647552 C-278.14718562 142.92537937 -280.4718932 142.91748025 -282.79654121 142.90208435 C-303.34106377 142.77274848 -319.03313506 145.03974872 -333.1484375 161.37890625 Z " fill="#919191" transform="translate(2438.1484375,8.62109375)"/>
<path d="M0 0 C0.89251673 -0.00297112 1.78503347 -0.00594224 2.70459616 -0.0090034 C5.67804326 -0.0176347 8.65144984 -0.01919393 11.62490845 -0.02069092 C13.76434412 -0.02532318 15.90377898 -0.03034838 18.04321289 -0.03573608 C23.84541529 -0.04882605 29.64760614 -0.05529883 35.449821 -0.05974674 C39.08161669 -0.06268403 42.71340928 -0.06679015 46.3452034 -0.07125092 C57.72766014 -0.08491923 69.11010972 -0.09458816 80.4925741 -0.09845281 C93.59493676 -0.10292676 106.69719476 -0.12044673 119.79952562 -0.1494534 C129.95020488 -0.17113861 140.10085484 -0.18116079 150.25155699 -0.18249393 C156.30285081 -0.18353741 162.35404615 -0.18934696 168.4053154 -0.20731354 C174.10663831 -0.22391198 179.80778996 -0.22589311 185.50912857 -0.21717453 C187.58822847 -0.21641032 189.66733804 -0.22066437 191.74641418 -0.23063278 C207.64689547 -0.30232644 223.58645495 0.38963957 238.55703735 6.32794189 C239.33941772 6.62837402 240.1217981 6.92880615 240.92788696 7.23834229 C267.96484884 17.9697495 288.84352688 38.95285309 300.3421936 65.51153564 C305.62971406 78.61048632 308.11043958 91.56078903 308.0975647 105.66607666 C308.10428192 106.74921646 308.11099915 107.83235626 308.11791992 108.94831848 C308.13675725 112.49287639 308.14081722 116.03724343 308.14297485 119.58184814 C308.14941381 122.07508925 308.15614296 124.56832963 308.16314697 127.06156921 C308.17508501 132.27708688 308.17883149 137.49253849 308.17764282 142.70806885 C308.1774401 149.34236628 308.20471009 155.97623311 308.23918724 162.61042881 C308.26159116 167.75906766 308.26547621 172.9076052 308.26442337 178.05628777 C308.26676031 180.49954648 308.27547415 182.94280882 308.2910881 185.38601875 C308.47820034 217.69393173 301.1405839 246.60896734 277.86172485 270.17950439 C253.86361124 293.69065565 226.2102576 301.62089833 193.27651978 301.54449463 C191.03752809 301.55020778 188.79853931 301.55717567 186.55955505 301.56529236 C180.51806258 301.58313544 174.47671606 301.58207196 168.43520522 301.57634997 C163.3735251 301.57324493 158.31187247 301.57936522 153.25019628 301.58538872 C140.61785229 301.60020278 127.9855955 301.59664517 115.35325811 301.58452541 C104.42494394 301.57459979 93.49679925 301.58752972 82.56851121 301.61145961 C71.30171133 301.63594164 60.03498799 301.645038 48.76815492 301.63880688 C42.4609706 301.63545156 36.15392619 301.63775697 29.8467617 301.65505791 C23.91136565 301.67063053 17.97629075 301.66645783 12.04090691 301.64775276 C9.87634081 301.64409514 7.71175037 301.64709162 5.54720688 301.65763855 C-25.22924116 301.79602341 -51.3143362 292.99664832 -74.19296265 272.14044189 C-74.8581189 271.55778564 -75.52327515 270.97512939 -76.20858765 270.37481689 C-93.41768727 254.45237893 -104.78470003 228.56979257 -106.38492966 205.35561943 C-106.46392672 202.44243054 -106.4861117 199.53492063 -106.48348999 196.6206665 C-106.49020721 195.52631287 -106.49692444 194.43195923 -106.50384521 193.30444336 C-106.5227086 189.7171768 -106.52674389 186.1300986 -106.52890015 182.54278564 C-106.53533741 180.02329942 -106.54206645 177.50381393 -106.54907227 174.98432922 C-106.56101687 169.71156615 -106.56484241 164.43885002 -106.56356812 159.16607666 C-106.56250249 153.78639862 -106.57653516 148.40700881 -106.60458374 143.02740479 C-106.63815822 136.49182509 -106.65167159 129.95650295 -106.65034866 123.42083931 C-106.65268789 120.94884339 -106.66141512 118.47684398 -106.6770134 116.00489616 C-106.84607573 86.43954957 -100.76878541 58.49717049 -80.19296265 36.14044189 C-79.72261597 35.6223999 -79.25226929 35.10435791 -78.76766968 34.57061768 C-58.22818435 12.16934669 -30.4522406 -0.03216167 0 0 Z M-30.41171265 76.73809814 C-42.16002497 91.97145088 -43.51198731 108.05292979 -43.4937439 126.62872314 C-43.49764307 128.30199792 -43.50198019 129.97527173 -43.50672913 131.64854431 C-43.51414509 135.13895896 -43.51393418 138.62927238 -43.50863647 142.11968994 C-43.50285163 146.55047521 -43.5197717 150.98084111 -43.54298115 155.4115572 C-43.55785038 158.86323898 -43.55857239 162.31482284 -43.55547142 165.76653099 C-43.55597815 167.3980918 -43.56109117 169.02965907 -43.57128334 170.66118813 C-43.67976004 190.45116711 -40.66427818 208.17193437 -26.51864624 223.07891846 C-15.22153997 234.32632511 -0.46172119 240.30090145 15.39520264 240.28088379 C16.5111274 240.28534047 16.5111274 240.28534047 17.6495961 240.28988719 C20.13193833 240.29852935 22.61423208 240.30007863 25.09658813 240.30157471 C26.88093671 240.30620612 28.66528429 240.31123121 30.44963074 240.31661987 C35.2908355 240.32971614 40.1320264 240.3361836 44.9732461 240.34063053 C48.00161454 240.34356618 51.02997924 240.34767195 54.05834579 240.3521347 C63.54425638 240.36580332 73.03015836 240.37547267 82.51607811 240.3793366 C93.4457104 240.3838137 104.37521739 240.40134815 115.3048116 240.43033719 C123.76619918 240.45199625 132.22755163 240.46204316 140.68896663 240.46337771 C145.73629827 240.46442286 150.78351204 240.4702685 155.83081436 240.48819733 C160.58328564 240.50475082 165.33555136 240.50679837 170.08804131 240.49805832 C171.82457342 240.49729179 173.56111692 240.50157957 175.29762077 240.51151657 C194.06966357 240.61256898 210.68563188 236.82806633 224.67227173 223.60675049 C236.88419839 211.2995476 241.87905902 195.57431183 241.96817017 178.51544189 C241.97313507 177.78748917 241.97809998 177.05953644 241.98321533 176.30952454 C241.99772366 173.91982038 242.0046221 171.53018272 242.01016235 169.14044189 C242.01298973 168.31607635 242.01581711 167.49171082 242.01873016 166.6423645 C242.03368151 162.27437017 242.04293491 157.90640848 242.04727173 153.53839111 C242.05273137 149.06825504 242.07671777 144.5984274 242.10524368 140.12838745 C242.12404604 136.65526514 242.12908505 133.18221428 242.1306076 129.70904541 C242.13359828 128.06352057 242.14150234 126.41799586 242.15479279 124.77252197 C242.30378811 104.89727405 239.30937877 87.20529167 225.14151001 72.2041626 C212.1857179 59.25938358 196.87902244 54.901536 179.08021545 54.85827637 C177.38458222 54.86056968 175.68894927 54.86307931 173.99331665 54.86578369 C172.18882029 54.86143146 170.38432578 54.85624661 168.57983398 54.85029602 C163.69746455 54.8369488 158.81517273 54.83632265 153.93278861 54.83885932 C149.8475822 54.83993208 145.76239129 54.83503778 141.67718822 54.8302539 C132.03369179 54.81917318 122.39023432 54.81871302 112.74673462 54.82476807 C102.82027963 54.83080527 92.89396647 54.81849996 82.96753567 54.797198 C74.4254023 54.77954524 65.88331391 54.77358649 57.34116298 54.77683574 C52.24805486 54.77864311 47.1550479 54.77606722 42.06195641 54.7621212 C37.26921528 54.74948781 32.47669414 54.75153881 27.68395615 54.76453209 C25.93291332 54.76688558 24.18185474 54.76420762 22.43083 54.75590897 C1.11187073 54.66221964 -16.07510566 59.95316215 -30.41171265 76.73809814 Z " fill="#107EC1" transform="translate(3404.1929626464844,89.85955810546875)"/>
<path d="M0 0 C1.9612128 -0.00299786 3.92242502 -0.00640182 5.88363647 -0.01017761 C11.17736517 -0.01895868 16.47107767 -0.02135325 21.76481295 -0.0219934 C25.0822278 -0.02270733 28.39963862 -0.02484812 31.71705246 -0.02749062 C43.31918344 -0.03672499 54.92130297 -0.04082795 66.5234375 -0.04003906 C77.29163347 -0.03943899 88.05977924 -0.04998186 98.82796252 -0.06578273 C108.11167433 -0.0789137 117.39536984 -0.08422063 126.67909086 -0.08358365 C132.20661716 -0.08333027 137.7340988 -0.08609239 143.26161575 -0.0967617 C148.46723533 -0.10653661 153.6727684 -0.10645843 158.87839127 -0.09924507 C160.77324044 -0.09821075 162.66809528 -0.10049225 164.56293488 -0.10660553 C179.92724547 -0.15290741 195.88005378 0.06199107 210.78271484 4.20776367 C211.54986816 4.41691406 212.31702148 4.62606445 213.10742188 4.84155273 C244.36144673 13.92739448 268.15951339 35.7112587 284.19287109 63.44995117 C287.76868157 70.13003667 290.36314648 76.85727687 292.59521484 84.08276367 C292.83780029 84.8563623 293.08038574 85.62996094 293.33032227 86.42700195 C297.15372274 99.5500909 297.58308511 112.87622624 297.57324219 126.4309082 C297.57924376 128.10659072 297.58605298 129.7822705 297.59359741 131.45794678 C297.611089 135.96193511 297.6159453 140.46584724 297.61722898 144.96986628 C297.61865962 147.7924276 297.62294607 150.61497009 297.62822342 153.4375267 C297.64666077 163.30805422 297.65490108 173.17852809 297.65332031 183.04907227 C297.65211736 192.21450542 297.67326612 201.37970372 297.70480764 210.54507744 C297.73103001 218.44956276 297.74168527 226.35397155 297.74040949 234.25849998 C297.73990206 238.96426885 297.74546522 243.66982806 297.76676559 248.37555313 C297.78625166 252.79990504 297.78620231 257.22384922 297.77173233 261.64821625 C297.76965665 263.2617821 297.77427022 264.87537423 297.78645325 266.48889542 C297.89408213 281.74290054 295.47753807 293.6743834 284.59130859 304.88745117 C275.6628872 313.21512031 265.36264773 314.62941433 253.62255859 314.41870117 C243.00570159 313.95419931 234.67268074 308.93225831 227.53271484 301.26635742 C220.4468331 292.49757876 218.11859441 282.69105085 218.15814209 271.59506226 C218.15673194 270.85519597 218.15532179 270.11532968 218.15386891 269.3530432 C218.15023159 266.88451267 218.15354571 264.41604016 218.15673828 261.94750977 C218.15534266 260.17301387 218.15344279 258.39851831 218.15107727 256.62402344 C218.146587 252.80668241 218.14472433 248.98935211 218.14461517 245.17200851 C218.14347235 239.12771648 218.13061521 233.08348519 218.11505127 227.03921509 C218.11247842 226.01782137 218.10990556 224.99642766 218.10725474 223.94408262 C218.1019883 221.85564036 218.09670282 219.76719816 218.09139872 217.678756 C218.05633447 203.61240662 218.02973462 189.54613308 218.03222656 175.47973633 C218.03381825 165.98449995 218.0177076 156.48947128 217.98151994 146.99430144 C217.96311037 141.97485778 217.95367336 136.95576073 217.96599579 131.93629074 C217.97748647 127.20991287 217.9656032 122.48415416 217.93636131 117.75785828 C217.9297564 116.03101849 217.93152587 114.30412137 217.94265938 112.57730484 C218.02124763 99.2761889 216.28154101 88.19165299 206.66943359 78.12182617 C198.52335129 71.37564344 190.06260286 68.99575587 179.75144958 68.99809265 C178.8819129 68.99441596 178.01237622 68.99073928 177.11648995 68.98695117 C174.19720153 68.97592136 171.27794871 68.97207165 168.35864258 68.96826172 C166.26755155 68.96199646 164.17646163 68.9553496 162.08537292 68.948349 C155.21235936 68.92731091 148.33934559 68.91694578 141.46630859 68.90698242 C139.09906566 68.90293456 136.73182285 68.89881762 134.36458015 68.89463234 C123.24108515 68.87558001 112.11759678 68.86134993 100.99408859 68.85302037 C88.16155575 68.84325208 75.3291956 68.81694324 62.49672359 68.77651948 C52.57383404 68.74633607 42.65099391 68.73154931 32.72805935 68.72823936 C26.80376561 68.72589112 20.87965633 68.71696008 14.95541191 68.69177818 C9.37806312 68.66845419 3.80101969 68.66428178 -1.77636528 68.67453957 C-3.81809379 68.67503401 -5.85983755 68.66874082 -7.90151978 68.65498352 C-21.83606113 68.56637969 -34.03643877 69.02780259 -44.71728516 79.14526367 C-54.74966834 89.73629464 -55.30022383 102.10679353 -55.21557617 115.92651367 C-55.21940552 117.70337376 -55.2250298 119.48023074 -55.2322998 121.25708008 C-55.2441969 125.06405535 -55.24380265 128.87075453 -55.23370552 132.67773438 C-55.21806645 138.70542209 -55.23187676 144.73282958 -55.2497406 150.76049805 C-55.28048535 162.46876797 -55.28206468 174.17695107 -55.28009033 185.88525391 C-55.27869525 200.78809653 -55.28913655 215.69087236 -55.32866806 230.59366608 C-55.34354854 236.57768864 -55.3433715 242.56146029 -55.33119023 248.54548645 C-55.32646012 252.27610898 -55.33402846 256.00663659 -55.34473419 259.73724365 C-55.34712828 261.45806957 -55.34444793 263.17891177 -55.33612633 264.89971924 C-55.27033428 279.37807462 -56.58731684 292.28038296 -66.79150391 303.40698242 C-76.51866193 312.59091348 -86.37823017 314.65201327 -99.37744141 314.41870117 C-109.11094701 313.99284713 -116.75754532 309.80595219 -123.71728516 303.14526367 C-131.75348786 294.35566696 -134.8349046 284.86945089 -134.85099792 273.07081604 C-134.85326348 272.38206908 -134.85552904 271.69332211 -134.85786325 270.98370403 C-134.8641663 268.68801194 -134.86337625 266.39237945 -134.86254883 264.09667969 C-134.8655428 262.44527613 -134.86894588 260.79387326 -134.87272644 259.14247131 C-134.88155072 254.66261973 -134.88390402 250.18278726 -134.88454223 245.70292783 C-134.88525412 242.89832884 -134.88739118 240.09373467 -134.89003944 237.28913689 C-134.89929073 227.48767668 -134.90337498 217.68623005 -134.90258789 207.88476562 C-134.90198856 198.77814114 -134.91251247 189.67157618 -134.92833155 180.56496674 C-134.94145851 172.72603217 -134.94676957 164.88711692 -134.94613248 157.04817146 C-134.94587882 152.37580297 -134.94865617 147.70348729 -134.95931053 143.03112984 C-134.9690775 138.62750841 -134.96901253 134.22398929 -134.9617939 129.820364 C-134.96075834 128.21571323 -134.96304871 126.61105581 -134.96915436 125.00641632 C-135.08821431 91.51031978 -125.42939625 61.97938223 -102.71728516 37.14526367 C-101.98896484 36.33444336 -101.26064453 35.52362305 -100.51025391 34.68823242 C-73.81436938 6.40743452 -37.16391602 -0.01141872 0 0 Z " fill="#919191" transform="translate(1697.71728515625,76.854736328125)"/>
<path d="M0 0 C254.76 0 509.52 0 772 0 C772 12.87 772 25.74 772 39 C517.24 39 262.48 39 0 39 C0 26.13 0 13.26 0 0 Z " fill="#DA0D15" transform="translate(1659,581)"/>
<path d="M0 0 C254.43 0 508.86 0 771 0 C771 12.87 771 25.74 771 39 C516.57 39 262.14 39 0 39 C0 26.13 0 13.26 0 0 Z " fill="#FFFFFF" transform="translate(888,581)"/>
<path d="M0 0 C1.88228467 -0.00202776 3.76456857 -0.00494499 5.64685059 -0.00869751 C9.5563112 -0.0130792 13.46556386 -0.00681983 17.375 0.00732422 C22.36561654 0.02450926 27.35575219 0.01448991 32.34635162 -0.00339317 C36.21898998 -0.01426314 40.09151524 -0.01077157 43.9641571 -0.0030098 C45.80441852 -0.0010216 47.64469051 -0.00341804 49.48493958 -0.01044846 C52.05599036 -0.01812709 54.62627172 -0.00637425 57.19726562 0.01025391 C58.31491302 0.00114487 58.31491302 0.00114487 59.45513916 -0.00814819 C67.83638379 0.09151271 74.97463814 2.49835189 81.046875 8.33984375 C87.28171311 15.48279959 88.67501517 22.37387584 88.32421875 31.76953125 C87.2831843 39.63230366 83.8787581 45.40151696 77.60546875 50.21875 C71.39758628 54.37569125 66.0517922 55.51636452 58.68334961 55.5402832 C57.46115219 55.54731766 56.23895477 55.55435211 54.97972107 55.56159973 C53.66512405 55.56576401 52.35052704 55.56992828 50.99609375 55.57421875 C49.61950424 55.58465878 48.24292188 55.59608397 46.86634827 55.60844421 C41.04122226 55.66060558 35.21622332 55.70877813 29.39086914 55.72436523 C25.81865678 55.73454602 22.24702989 55.76412277 18.67505074 55.80568504 C16.6769122 55.82371508 14.67862239 55.82136811 12.68040466 55.81843567 C-1.16070436 56.00187995 -13.6349602 60.09636274 -23.90625 69.6484375 C-35.49755248 82.11249688 -37.75768285 96.51154759 -37.65454102 112.85009766 C-37.65837158 114.57946743 -37.66399688 116.30883401 -37.67126465 118.03819275 C-37.68314911 121.73929627 -37.68277756 125.44011575 -37.67267036 129.14122391 C-37.65701664 135.00069504 -37.67085097 140.85987844 -37.68870544 146.71932983 C-37.71943014 158.09797234 -37.72102993 169.47652539 -37.71905518 180.85520172 C-37.71765939 195.34576195 -37.72808697 209.83625361 -37.7676329 224.32676351 C-37.78251751 230.14464559 -37.78233359 235.96226962 -37.77015507 241.78015542 C-37.76542805 245.40475012 -37.77298834 249.029247 -37.78369904 252.65382576 C-37.78609484 254.32669587 -37.78340661 255.9995827 -37.77509117 257.67243385 C-37.71406216 270.73683623 -38.70431601 282.26451848 -47.90625 292.30859375 C-55.67228224 299.68319291 -63.66442319 302.02580009 -74.25610352 301.86694336 C-83.64218645 301.44096045 -90.32220933 298.23864621 -97.109375 291.8125 C-104.18205388 283.47105812 -106.27627725 274.5983223 -106.28996277 263.91311646 C-106.29222833 263.18015598 -106.29449388 262.44719551 -106.29682809 261.69202411 C-106.30313589 259.24665219 -106.30234078 256.80133616 -106.30151367 254.35595703 C-106.30450736 252.59780303 -106.30791038 250.83964968 -106.31169128 249.08149719 C-106.32051879 244.31026567 -106.32286901 239.5390521 -106.32350707 234.76781321 C-106.32421882 231.78095597 -106.32635562 228.79410327 -106.32900429 225.80724716 C-106.33825689 215.36921653 -106.34233969 204.93119866 -106.34155273 194.49316406 C-106.34095348 184.7946662 -106.35147557 175.09622423 -106.3672964 165.39774048 C-106.38042365 157.05008978 -106.38573439 148.70245722 -106.38509732 140.35479629 C-106.38484365 135.37890717 -106.38762132 130.40306763 -106.39827538 125.42718887 C-106.40804274 120.73711557 -106.4079771 116.04713832 -106.40075874 111.35706139 C-106.39972321 109.64801453 -106.4020134 107.93896142 -106.4081192 106.22992516 C-106.50698843 76.60512306 -100.256844 50.20337319 -79.15625 28.3984375 C-78.29257813 27.50511719 -77.42890625 26.61179687 -76.5390625 25.69140625 C-55.26004629 5.13852858 -28.60915769 -0.11042224 0 0 Z " fill="#107EC1" transform="translate(3188.15625,89.6015625)"/>
<path d="M0 0 C1.21162792 -0.00384115 2.42325583 -0.00768229 3.67159975 -0.01163983 C5.02312499 -0.01085955 6.37465018 -0.00998076 7.72617531 -0.00901413 C9.15650755 -0.01159709 10.58683908 -0.01461006 12.01716959 -0.01801753 C15.95708821 -0.02609874 19.89698862 -0.02787772 23.83691454 -0.028615 C28.08240086 -0.03046358 32.32787769 -0.03800987 36.57335854 -0.04475021 C45.86040921 -0.05834147 55.14745556 -0.06435934 64.43451452 -0.06876087 C70.23057427 -0.07152165 76.02663235 -0.07575867 81.82269096 -0.08026505 C97.8626177 -0.09245817 113.90254309 -0.10275777 129.94247437 -0.10614014 C130.9693723 -0.1063597 131.99627023 -0.10657927 133.05428628 -0.10680549 C134.59836431 -0.10713291 134.59836431 -0.10713291 136.17363584 -0.10746694 C138.25964061 -0.10791041 140.34564539 -0.10835697 142.43165016 -0.10880661 C143.98375307 -0.10913875 143.98375307 -0.10913875 145.56721158 -0.10947761 C162.34106598 -0.1134273 179.11487697 -0.13088633 195.8887146 -0.15416613 C213.10005432 -0.17786085 230.31137225 -0.19034111 247.52272856 -0.19150805 C257.19039499 -0.19242581 266.85800487 -0.19820354 276.52565575 -0.21632767 C284.75630655 -0.23170322 292.98688331 -0.23686417 301.21754573 -0.22858956 C305.4186446 -0.22467416 309.61959425 -0.2256559 313.8206749 -0.23964691 C317.6648496 -0.25233253 321.50876216 -0.25123568 325.35293622 -0.2390562 C326.74525718 -0.2370899 328.13759637 -0.24022044 329.52989165 -0.24890056 C331.41973383 -0.25993874 333.30966197 -0.25074354 335.19950867 -0.24050903 C336.25008748 -0.24110612 337.3006663 -0.24170321 338.38308084 -0.24231839 C342.57631498 0.30902623 345.2203275 2.00519223 348.01099586 5.13167191 C349.87730109 9.7409769 349.67327219 14.19985916 349.65918922 19.12752151 C349.66443108 20.19382294 349.66967293 21.26012436 349.67507362 22.35873795 C349.68148806 24.61051438 349.68016434 26.86232434 349.6716404 29.11409378 C349.66313382 32.55342351 349.69189621 35.99109028 349.72364235 39.43025589 C349.7252546 41.6210106 349.72467637 43.81176825 349.72168922 46.00252151 C349.7329232 47.02768372 349.74415718 48.05284592 349.75573158 49.10907364 C349.69949182 54.8909015 349.37178306 58.71637023 345.22559547 63.13142776 C341.47133188 65.01139962 338.41060411 65.38243627 334.23912334 65.38590336 C332.42708356 65.39465165 332.42708356 65.39465165 330.57843691 65.40357667 C329.24134525 65.39994363 327.9042541 65.39611927 326.56716347 65.39212418 C325.14406618 65.39514482 323.72097052 65.39903386 322.29787773 65.40371674 C318.38718725 65.4140167 314.47658824 65.41180985 310.56589019 65.40753615 C306.34836322 65.40507256 302.13085848 65.4140785 297.91333961 65.42157364 C289.6508812 65.43433271 281.38845527 65.43611284 273.12598867 65.43377338 C266.41133811 65.43199147 259.69669742 65.43373711 252.98204803 65.43799782 C251.54941327 65.4388906 251.54941327 65.4388906 250.0878364 65.43980142 C248.14767345 65.44101315 246.20751051 65.44222729 244.26734757 65.4434438 C226.06651635 65.45432391 207.86570365 65.45215456 189.66487139 65.44605895 C173.0082139 65.44088887 156.35161487 65.4521468 139.69496895 65.47115717 C122.59768852 65.49052108 105.50043577 65.49879415 88.4031443 65.49503392 C78.80199093 65.49311974 69.20088733 65.49563056 59.59974289 65.50974846 C51.42662207 65.52164477 43.25358167 65.52308682 35.08045978 65.51095829 C30.90960562 65.50505739 26.73889867 65.5040035 22.5680542 65.51596069 C18.7504227 65.52677821 14.93306207 65.52376572 11.11544346 65.50969901 C9.73393421 65.50704065 8.35240402 65.50945423 6.97091527 65.51743487 C5.0932698 65.52752938 3.21554808 65.5173349 1.33790874 65.50615788 C-0.22665039 65.5062404 -0.22665039 65.5062404 -1.82281679 65.50632459 C-6.16901779 64.95429053 -9.54100063 63.38065132 -12.62315941 60.25896072 C-14.01024851 57.69558154 -14.16647464 55.99884387 -14.1943264 53.09090042 C-14.2181942 51.58881531 -14.2181942 51.58881531 -14.24254417 50.05638504 C-14.24274559 48.98028976 -14.24294701 47.90419449 -14.24315453 46.79549026 C-14.25076805 45.68338181 -14.25838158 44.57127335 -14.26622581 43.42546463 C-14.27702842 41.07356892 -14.27987929 38.72162523 -14.27538109 36.36970901 C-14.27440994 32.77644373 -14.31600887 29.1853216 -14.36034203 25.59236526 C-14.36554994 23.30591138 -14.3682372 21.01945008 -14.36815453 18.73299026 C-14.38454979 17.66094345 -14.40094505 16.58889664 -14.41783714 15.48436356 C-14.34092838 7.15582755 -14.34092838 7.15582755 -11.42479515 3.46883011 C-7.60818141 0.10292554 -4.91552191 0.005834 0 0 Z " fill="#107EC1" transform="translate(13.774404525756836,333.8685722351074)"/>
<path d="M0 0 C1.81651683 -0.00668677 1.81651683 -0.00668677 3.66973096 -0.01350862 C5.02056715 -0.01341932 6.37140333 -0.01322946 7.72223949 -0.01294994 C9.15185925 -0.01624862 10.58147807 -0.0199742 12.0110957 -0.02409142 C15.9490815 -0.03411888 19.88705205 -0.0378294 23.8250488 -0.04048073 C28.06851086 -0.0443815 32.31196081 -0.0539599 36.55541515 -0.0626936 C46.80715227 -0.08246303 57.05889038 -0.0925242 67.3106418 -0.10142139 C72.13594377 -0.10580295 76.96124465 -0.11117005 81.78654575 -0.11641026 C97.82218002 -0.13342197 113.8578136 -0.14791728 129.89345551 -0.155159 C134.05547429 -0.15706895 138.21749307 -0.15898927 142.37951183 -0.16094494 C143.93122127 -0.16167055 143.93122127 -0.16167055 145.51427837 -0.16241082 C162.28100475 -0.17071537 179.04765987 -0.19605972 195.81435511 -0.22852562 C213.02004931 -0.26157059 230.22570727 -0.27960538 247.43143338 -0.28280324 C257.09524019 -0.28497056 266.75894307 -0.29375185 276.422719 -0.31926441 C284.65079318 -0.34093633 292.87873818 -0.34903912 301.10683767 -0.33929763 C305.30608038 -0.33474289 309.50505635 -0.33670701 313.70426273 -0.35605907 C317.54793813 -0.37362 321.39115081 -0.3727511 325.23483064 -0.35716178 C326.62582661 -0.35477491 328.01685403 -0.35916501 329.40780178 -0.37099043 C342.34134336 -0.47414298 342.34134336 -0.47414298 347.22838879 4.13422108 C349.2675237 7.05943787 349.48708958 9.46975964 349.51891613 12.99115467 C349.53167583 13.95250324 349.54443554 14.91385181 349.5575819 15.90433216 C349.56092037 17.45285374 349.56092037 17.45285374 349.56432629 19.03265858 C349.57098309 20.10037495 349.57763988 21.16809132 349.58449841 22.26816273 C349.59461931 24.52590685 349.5993156 26.78368085 349.59899426 29.04144764 C349.60336385 32.48954227 349.63968099 35.93635318 349.67760754 39.38422108 C349.68347654 41.57952921 349.68744537 43.77484341 349.68932629 45.97015858 C349.70369732 46.99845783 349.71806835 48.02675709 349.73287487 49.08621693 C349.6960252 54.88114456 349.39023862 58.710754 345.22838879 63.13422108 C341.46982988 65.01652302 338.40262763 65.38586446 334.22629929 65.39148998 C333.01478937 65.39793887 331.80327945 65.40438777 330.55505711 65.41103208 C329.21403529 65.40808993 327.87301388 65.40495451 326.53199291 65.40164661 C325.10477042 65.40538338 323.67754997 65.40998501 322.25033277 65.41537726 C318.3282452 65.42761913 314.40624284 65.42734541 310.48414052 65.42498851 C306.2543402 65.42458065 302.02456733 65.43561644 297.79477978 65.44510365 C289.5082616 65.46172045 281.22177187 65.46721347 272.93523843 65.4683284 C266.20104128 65.46927843 259.46685352 65.47338643 252.73265934 65.47972965 C233.64580446 65.49734288 214.55897209 65.50656824 195.47210903 65.5050687 C194.44301191 65.50498879 193.4139148 65.50490888 192.35363293 65.50482655 C191.32328159 65.50474478 190.29293025 65.50466302 189.23135614 65.50457878 C172.52618432 65.50376556 155.8211026 65.52291213 139.11595685 65.55110328 C121.96895498 65.57981216 104.82199709 65.59364472 87.67497057 65.59191573 C78.04585238 65.5912512 68.41682869 65.59677112 58.78773212 65.61827183 C50.59080721 65.63645724 42.39401962 65.64085264 34.1970833 65.62725298 C30.01403366 65.62071032 25.83124769 65.62065275 21.64822292 65.63795948 C17.81942154 65.65363797 13.99109403 65.65088062 10.16230457 65.63339122 C8.77675543 65.63030976 7.39117139 65.63399674 6.0056634 65.64511137 C-6.94057963 65.74209413 -6.94057963 65.74209413 -11.77161121 61.13422108 C-13.93052549 57.89584966 -14.03278657 56.95269683 -14.0780077 53.20721912 C-14.09399509 52.20575352 -14.10998249 51.20428791 -14.12645435 50.17247486 C-14.13181705 49.0912183 -14.13717976 48.00996174 -14.14270496 46.89593983 C-14.15624767 45.22565472 -14.15624767 45.22565472 -14.17006397 43.52162647 C-14.18458107 41.16375898 -14.19345682 38.80585107 -14.19714832 36.44794178 C-14.20903135 32.8459293 -14.25819446 29.24563684 -14.30872059 25.6439867 C-14.31818619 23.35297944 -14.32542057 21.06196165 -14.33020496 18.77093983 C-14.34973728 17.69575596 -14.3692696 16.62057209 -14.38939381 15.51280689 C-14.33914474 7.15476736 -14.33914474 7.15476736 -11.4241991 3.46942616 C-7.60673888 0.10872602 -4.91334406 0.00837169 0 0 Z " fill="#107EC1" transform="translate(13.771611213684082,164.86577892303467)"/>
<path d="M0 0 C0.90128632 -0.00960754 1.80257263 -0.01921509 2.73117065 -0.02911377 C3.69789703 -0.03336365 4.66462341 -0.03761353 5.66064453 -0.04199219 C6.66177277 -0.04769226 7.662901 -0.05339233 8.69436646 -0.05926514 C10.81088202 -0.06870365 12.92741221 -0.07524455 15.04394531 -0.07910156 C18.27451286 -0.08881026 21.50444488 -0.11984611 24.73486328 -0.15136719 C26.79345326 -0.15789737 28.85204778 -0.16314778 30.91064453 -0.16699219 C31.87332245 -0.17933899 32.83600037 -0.19168579 33.82785034 -0.20440674 C39.06853267 -0.18707755 42.99322415 0.02769568 47.41845703 3.16113281 C49.92785947 6.66982921 50.79364233 9.09075138 50.79598045 13.38514709 C50.8038037 14.42310393 50.81162694 15.46106077 50.81968725 16.53047085 C50.81299508 17.66421674 50.80630292 18.79796263 50.79940796 19.96606445 C50.80408793 21.17554025 50.8087679 22.38501604 50.81358969 23.63114262 C50.82348756 26.98523673 50.81992252 30.33882711 50.81063104 33.69289064 C50.80384724 37.31121844 50.81431844 40.92950201 50.8225708 44.54782104 C50.8359175 51.63486694 50.83302624 58.72181757 50.82433288 65.80886722 C50.81756042 71.56815292 50.81663771 77.3274119 50.81990433 83.08670044 C50.82036403 83.9060863 50.82082373 84.72547217 50.82129735 85.5696879 C50.82225652 87.23420358 50.82322916 88.89871926 50.82421513 90.56323493 C50.83277177 106.1749984 50.8229306 121.78670904 50.80681403 137.39846385 C50.7934106 150.79691902 50.79573861 164.19529623 50.80957031 177.59375 C50.82562129 193.14927549 50.83194777 208.70475467 50.82273352 224.26028728 C50.82177786 225.91871324 50.82083475 227.57713921 50.81990433 229.23556519 C50.8194415 230.05156333 50.81897867 230.86756147 50.81850182 231.70828682 C50.81591049 237.46130774 50.82028602 243.2142993 50.82734299 248.96731567 C50.83575283 255.97739794 50.83348874 262.98737941 50.81750076 269.99745011 C50.80961105 273.57478143 50.80653824 277.15194464 50.81644821 280.72927475 C50.82702254 284.60501217 50.81440478 288.4804737 50.79940796 292.35620117 C50.80610012 293.48994706 50.81279229 294.62369295 50.81968725 295.79179478 C50.80795238 297.34873003 50.80795238 297.34873003 50.79598045 298.93711853 C50.79524987 300.2789717 50.79524987 300.2789717 50.79450452 301.64793301 C50.33034867 304.7499784 49.23359608 306.62236042 47.41845703 309.16113281 C42.17459284 312.88199468 36.90771708 312.59781438 30.72705078 312.55957031 C29.70418472 312.56244049 28.68131866 312.56531067 27.62745667 312.56826782 C25.47160283 312.57030373 23.31573032 312.56480707 21.15991211 312.55224609 C17.86351207 312.53616966 14.56833503 312.55211988 11.27197266 312.57128906 C9.17366266 312.56930687 7.07535343 312.56546369 4.97705078 312.55957031 C3.99361191 312.56564301 3.01017303 312.5717157 1.99693298 312.57797241 C-4.14083794 312.51496793 -7.52395383 311.67272389 -12.33154297 307.72363281 C-14.82860134 304.60230985 -14.70709652 300.98367486 -14.71017742 297.12263584 C-14.71340187 296.10060363 -14.71662631 295.07857143 -14.71994847 294.02556854 C-14.71839987 292.90447361 -14.71685127 291.78337867 -14.71525574 290.62831116 C-14.71752129 289.436024 -14.71978685 288.24373684 -14.72212106 287.01531976 C-14.72736232 283.70473272 -14.72810491 280.39419992 -14.72692668 277.08361256 C-14.7267228 273.51367943 -14.73224022 269.94375443 -14.73698425 266.37382507 C-14.7452937 259.37958303 -14.74803922 252.38534942 -14.74859663 245.39110286 C-14.7490716 239.70712417 -14.7511254 234.02314826 -14.75429726 228.33917046 C-14.76310423 212.22957166 -14.7677165 196.11997953 -14.76696678 180.01037831 C-14.76692683 179.14175083 -14.76688687 178.27312335 -14.7668457 177.37817383 C-14.76680482 176.50848787 -14.76676394 175.63880192 -14.76672182 174.74276184 C-14.76631522 160.6428883 -14.77588813 146.54304144 -14.78998407 132.44317562 C-14.80433831 117.97095412 -14.8112548 103.49874565 -14.81039029 89.02651685 C-14.81005802 80.89924361 -14.81281848 72.77199836 -14.82356834 64.64473152 C-14.83266077 57.72614454 -14.83485894 50.80759823 -14.82805892 43.88900787 C-14.82478748 40.35829259 -14.82475945 36.8276554 -14.83341217 33.29694748 C-14.84269075 29.47157458 -14.83651751 25.64631652 -14.82878113 21.82093811 C-14.83392469 20.70207389 -14.83906825 19.58320968 -14.84436768 18.43044049 C-14.83976889 17.40580053 -14.83517009 16.38116058 -14.83043194 15.32547092 C-14.83064931 14.44251113 -14.83086667 13.55955133 -14.83109063 12.64983517 C-14.32828266 7.63540479 -12.45120331 4.34791192 -8.58154297 1.16113281 C-5.68985473 0.22258272 -3.02838808 0.02616768 0 0 Z " fill="#107EC1" transform="translate(484.58154296875,86.8388671875)"/>
<path d="M0 0 C1.49217261 -0.01080981 1.49217261 -0.01080981 3.01449013 -0.02183801 C4.1051396 -0.01446372 5.19578907 -0.00708944 6.31948853 0.00050831 C8.05997499 -0.0054533 8.05997499 -0.0054533 9.83562279 -0.01153535 C13.05703176 -0.01950335 16.27809492 -0.01398655 19.49948406 -0.00278485 C22.97329101 0.00604872 26.44706137 -0.0023839 29.92086792 -0.00864697 C36.72631385 -0.01814195 43.53165385 -0.01152902 50.33709192 0.00061598 C58.25922716 0.01422788 66.18133709 0.01259883 74.10348105 0.01048265 C88.23686599 0.00729174 102.37020056 0.0189663 116.50357056 0.03854847 C130.22363825 0.05755306 143.94364689 0.06463614 157.66372681 0.05905628 C172.59736618 0.05300086 187.53097957 0.05317122 202.46461678 0.06454211 C204.05647914 0.06574943 205.6483415 0.06695541 207.24020386 0.06816006 C208.02346837 0.0687636 208.80673289 0.06936713 209.6137327 0.06998896 C215.13827392 0.07387115 220.66280548 0.07347332 226.18734741 0.07157421 C232.91822595 0.06945385 239.64905272 0.07466426 246.37991667 0.08918776 C249.81531506 0.09644004 253.250638 0.10050171 256.68604279 0.0959444 C260.40671583 0.09273755 264.1271594 0.10176685 267.84780884 0.1140337 C269.48378304 0.10836471 269.48378304 0.10836471 271.15280724 0.1025812 C272.14758898 0.1084134 273.14237072 0.11424559 274.16729736 0.12025452 C275.45585349 0.12155468 275.45585349 0.12155468 276.77044106 0.12288111 C280.34705438 0.51228259 282.42809598 1.6392048 284.80874634 4.31027699 C286.74366722 8.96120133 286.51149065 13.41707033 286.48208618 18.40598011 C286.48495636 19.47465321 286.48782654 20.5433263 286.49078369 21.64438343 C286.49282216 23.90037028 286.48730754 26.15637488 286.47476196 28.41232777 C286.45870589 31.86243742 286.47461873 35.31137558 286.49380493 38.76144886 C286.49182246 40.95546186 286.48797871 43.14947413 286.48208618 45.34348011 C286.48815887 46.3738036 286.49423157 47.40412708 286.50048828 48.46567249 C286.41171392 57.52009016 286.41171392 57.52009016 283.08364868 61.37473011 C280.06396117 64.05967998 278.19393914 64.75022322 274.17009068 64.75504684 C273.17592563 64.76348679 272.18176059 64.77192673 271.15746933 64.78062242 C270.06750198 64.77461238 268.97753463 64.76860233 267.85453796 64.76241016 C266.11510985 64.77048847 266.11510985 64.77048847 264.34054178 64.77872998 C261.1210761 64.79057511 257.90194119 64.78893157 254.68247235 64.78156316 C251.21067901 64.77684046 247.73894164 64.78933336 244.26716614 64.79958057 C237.46540776 64.81679163 230.66374166 64.81760382 223.86196715 64.81236767 C218.33434936 64.80832901 212.80675887 64.8097659 207.27914238 64.81511593 C206.49292536 64.81586435 205.70670834 64.81661277 204.89666657 64.81738387 C203.29955335 64.81891532 201.70244014 64.82045367 200.10532694 64.82199884 C185.12211558 64.83573223 170.1389564 64.83028031 155.15574621 64.81881363 C141.44382382 64.8088804 127.73203634 64.82182195 114.02013475 64.84574782 C99.94566546 64.87012159 85.87125906 64.87975094 71.79676908 64.8730951 C63.89303282 64.86959903 55.98940034 64.87186041 48.08568001 64.88934612 C41.35735389 64.90404661 34.62920464 64.90473191 27.90088207 64.88727521 C24.46729724 64.87874489 21.03402864 64.87666463 17.60046005 64.89192677 C13.87991942 64.90504626 10.16024568 64.89366817 6.43974304 64.87593555 C4.8081381 64.89034306 4.8081381 64.89034306 3.14357144 64.90504164 C-4.16142263 64.83311618 -4.16142263 64.83311618 -8.04525089 62.47488976 C-12.69477181 57.25617671 -12.22344233 51.69189278 -12.21713257 45.03488636 C-12.22141769 44.03517307 -12.22570282 43.03545979 -12.2301178 42.00545216 C-12.23585098 39.89490992 -12.23636883 37.78434793 -12.23202515 35.67380238 C-12.22886582 32.45202262 -12.25233524 29.23116202 -12.27767944 26.00949574 C-12.27995266 23.95546043 -12.28065583 21.90142267 -12.27963257 19.84738636 C-12.28884232 18.8878455 -12.29805206 17.92830463 -12.30754089 16.93968678 C-12.27136612 11.68744287 -11.97118946 7.85443975 -8.91635132 3.37473011 C-5.92385685 0.65776407 -4.01608112 -0.0002572 0 0 Z " fill="#107EC1" transform="translate(76.91635131835938,249.62526988983154)"/>
<path d="M0 0 C5.70947144 3.89676853 11.78767156 9.62954245 13.49609375 16.4921875 C13.59792969 17.22566406 13.69976563 17.95914063 13.8046875 18.71484375 C16.40941558 16.21430479 18.78057165 13.58694616 21.1171875 10.83984375 C28.72787827 2.16719613 37.77410103 -4.55507377 49.70654297 -5.42358398 C62.29561506 -6.0117643 72.90223489 -5.19550522 83.03125 3.09375 C93.41100186 12.58184917 97.92671207 24.97571792 99.8046875 38.71484375 C99.94261422 41.97168244 99.9311733 45.22456092 99.91821289 48.48388672 C99.91835892 49.45036636 99.91850494 50.41684601 99.9186554 51.41261292 C99.91796101 54.59410885 99.91019083 57.77554559 99.90234375 60.95703125 C99.90047789 63.16805998 99.89905478 65.37908912 99.89805603 67.59011841 C99.89424412 73.39991402 99.88442515 79.20968451 99.87335205 85.01947021 C99.86310942 90.95177877 99.8585523 96.8840914 99.85351562 102.81640625 C99.84280169 114.44923155 99.82521562 126.08203162 99.8046875 137.71484375 C91.5546875 137.71484375 83.3046875 137.71484375 74.8046875 137.71484375 C74.7953418 134.90509033 74.78599609 132.09533691 74.77636719 129.20043945 C74.74247303 119.87650049 74.68685536 110.55277995 74.62078476 101.2290163 C74.58141667 95.5806449 74.549176 89.93242692 74.53369141 84.28393555 C74.51845442 78.82426625 74.48388462 73.36501903 74.43637848 67.90553856 C74.42163702 65.83137892 74.41365068 63.75715901 74.41280365 61.68294716 C74.59693055 40.21482197 74.59693055 40.21482197 64.8046875 21.71484375 C58.94439951 17.31153343 53.03247026 15.88877953 45.765625 16.234375 C38.40726825 17.42840914 32.58904228 20.92823755 28.05078125 26.81640625 C24.31506157 32.50781617 21.70890993 37.99202676 21.64646912 44.87835693 C21.6366803 45.70002853 21.62689148 46.52170013 21.61680603 47.36827087 C21.61105057 48.26091141 21.6052951 49.15355194 21.59936523 50.07324219 C21.58946564 51.01992264 21.57956604 51.96660309 21.56936646 52.94197083 C21.53779296 56.06936141 21.51301036 59.19676718 21.48828125 62.32421875 C21.46770815 64.49326979 21.44671158 66.66231686 21.42530823 68.83135986 C21.3701244 74.53921283 21.32069881 80.24710176 21.27246094 85.95501709 C21.22221902 91.77993977 21.16654699 97.60481025 21.11132812 103.4296875 C21.00379164 114.85802997 20.90283841 126.28641681 20.8046875 137.71484375 C12.5546875 137.71484375 4.3046875 137.71484375 -4.1953125 137.71484375 C-4.20989502 135.00120605 -4.22447754 132.28756836 -4.23950195 129.49169922 C-4.29006497 120.47911535 -4.3566971 111.46670034 -4.43102741 102.45428276 C-4.4755645 96.99541606 -4.5148565 91.53662113 -4.54174805 86.07763672 C-4.56794829 80.79956348 -4.60846639 75.52176898 -4.65849876 70.24386978 C-4.67505521 68.24031188 -4.68663877 66.23670589 -4.69292641 64.23308945 C-4.38077562 41.50423301 -4.38077562 41.50423301 -14.1953125 21.71484375 C-19.78173974 17.3927132 -25.51978987 15.94254065 -32.51953125 16.2890625 C-38.80276059 17.28887564 -44.75013873 20.14953015 -49.1953125 24.71484375 C-55.78397856 33.88168348 -58.64701642 43.15759615 -58.62768555 54.38720703 C-58.6378772 55.29574936 -58.64806885 56.20429169 -58.65856934 57.1403656 C-58.68845641 60.10536052 -58.69792783 63.07003113 -58.70703125 66.03515625 C-58.72389597 68.10595757 -58.7420486 70.17674877 -58.76142883 72.24752808 C-58.80874014 77.66923864 -58.83867131 83.09090814 -58.86486816 88.51275635 C-58.89476925 94.05676378 -58.94126662 99.60062998 -58.98632812 105.14453125 C-59.07214652 116.00124407 -59.13805103 126.85794272 -59.1953125 137.71484375 C-67.4453125 137.71484375 -75.6953125 137.71484375 -84.1953125 137.71484375 C-84.5253125 91.51484375 -84.8553125 45.31484375 -85.1953125 -2.28515625 C-77.9353125 -2.28515625 -70.6753125 -2.28515625 -63.1953125 -2.28515625 C-62.5353125 3.65484375 -61.8753125 9.59484375 -61.1953125 15.71484375 C-59.5246875 13.45640625 -59.5246875 13.45640625 -57.8203125 11.15234375 C-43.92627391 -6.0811392 -19.34619055 -11.32543895 0 0 Z " fill="#B9B9B8" transform="translate(3610.1953125,533.28515625)"/>
<path d="M0 0 C1.87580498 -0.01496269 1.87580498 -0.01496269 3.789505 -0.03022766 C5.1727904 -0.03112342 6.55607596 -0.03178701 7.93936157 -0.03224182 C9.39818241 -0.03986449 10.85699924 -0.04829218 12.31581116 -0.0574646 C16.2766024 -0.07940507 20.23731645 -0.08820779 24.1981616 -0.09329104 C26.67336282 -0.09693494 29.14854382 -0.10317515 31.62373734 -0.11029243 C40.26069273 -0.1347847 48.89758807 -0.14783849 57.53457642 -0.15138245 C65.58265791 -0.15501828 73.63035818 -0.18491737 81.67832315 -0.22678703 C88.59055557 -0.26148607 95.5026616 -0.27693081 102.41498053 -0.27762848 C106.54228941 -0.27842139 110.66920987 -0.28716607 114.79642868 -0.31562614 C118.67899096 -0.34180078 122.5608426 -0.34401601 126.44345284 -0.3279705 C127.8664524 -0.32615553 129.28949278 -0.33285138 130.71240425 -0.34878922 C142.79916722 -0.47589258 142.79916722 -0.47589258 146.73370361 2.68661499 C149.59158399 6.09590645 150.03107074 7.65123058 150.09561157 11.99583435 C150.1116745 12.97735474 150.12773743 13.95887512 150.14428711 14.97013855 C150.18873281 19.46600179 150.22981029 23.9617168 150.25283813 28.45774841 C150.26939039 30.82829104 150.29667045 33.19878391 150.33486938 35.56907654 C150.38966886 38.98665771 150.41151872 42.40306813 150.42617798 45.82102966 C150.44884735 46.87747681 150.47151672 47.93392395 150.49487305 49.02238464 C150.47130653 57.24268591 150.47130653 57.24268591 147.49502563 60.92747498 C143.75333321 64.3146616 142.00608961 64.40267777 137.04598999 64.42805481 C135.17430901 64.44095551 135.17430901 64.44095551 133.26481628 64.45411682 C131.87426799 64.4585522 130.48371926 64.46285055 129.09317017 64.46702576 C127.63464665 64.47492589 126.17612508 64.48319479 124.71760559 64.49180603 C119.91996124 64.51803819 115.12230811 64.53333564 110.32461548 64.54759216 C108.6735763 64.5529515 107.02253717 64.55832901 105.37149811 64.56372452 C98.50360241 64.58535571 91.63570908 64.60409236 84.76778793 64.61534691 C74.92296243 64.63158531 65.07853168 64.66475738 55.23385501 64.72174776 C48.31318363 64.76044586 41.39261783 64.77997947 34.4718411 64.78526747 C30.33777567 64.78892138 26.20413115 64.80094605 22.0701828 64.83337021 C18.17946545 64.86344865 14.2894237 64.86976391 10.39861488 64.85798645 C8.97238204 64.85776569 7.54611788 64.8660734 6.11999321 64.88364029 C-5.99613873 65.02473409 -5.99613873 65.02473409 -9.9302063 61.86268616 C-12.79703502 58.43827721 -13.22410753 56.8986394 -13.25839233 52.53660583 C-13.26799988 51.55185776 -13.27760742 50.56710968 -13.2875061 49.55252075 C-13.29175598 48.48483963 -13.29600586 47.41715851 -13.30038452 46.31712341 C-13.30608459 45.22200943 -13.31178467 44.12689545 -13.31765747 42.99859619 C-13.32711665 40.67761708 -13.33364508 38.35662447 -13.3374939 36.03562927 C-13.34719124 32.48664346 -13.37820323 28.93823863 -13.40975952 25.38938904 C-13.41629025 23.13613727 -13.42154045 20.88288136 -13.42538452 18.62962341 C-13.43773132 17.56801498 -13.45007813 16.50640656 -13.46279907 15.41262817 C-13.43429463 5.96967138 -13.43429463 5.96967138 -10.09725952 2.27415466 C-6.72506055 0.12125604 -3.95590559 0.01691991 0 0 Z " fill="#107EC1" transform="translate(213.09725952148438,84.72584533691406)"/>
<path d="M0 0 C15.92232213 12.19134896 23.07223397 30.08619625 25.75 49.5 C27.60780858 73.28901227 24.04470752 97.07517048 8.875 116.1875 C-0.57518931 126.31270284 -14.45034481 134.14135562 -28.38085938 135.17700195 C-39.93402812 135.46445689 -50.22193113 135.63988615 -61 131 C-61.72832031 130.71125 -62.45664063 130.4225 -63.20703125 130.125 C-76.48661097 124.25788786 -86.40915645 112.24793671 -91.94140625 99.05859375 C-100.19419126 75.21383117 -100.88840399 48.52737662 -91 25 C-82.60715781 7.97285932 -70.08142856 -2.73580372 -52.125 -8.875 C-34.56585045 -13.13099125 -14.67923156 -10.7481831 0 0 Z M-60.265625 20.828125 C-71.72140264 35.17364836 -73.01453338 54.40748219 -72 72 C-70.13827388 86.74721635 -64.9153697 100.81143969 -53.125 110.375 C-46.88659312 114.71057235 -39.64424196 117.21424782 -32 116 C-20.59600652 113.19080513 -13.62637389 107.18976991 -7.60546875 97.2421875 C2.04754384 77.74826913 2.21653015 55.81684453 -3.80859375 35.23828125 C-7.01154101 26.17038169 -13.09603704 16.30661066 -22 12 C-36.52075707 6.24338919 -49.47796268 9.65859853 -60.265625 20.828125 Z " fill="#B9B9B8" transform="translate(3428,538)"/>
<path d="M0 0 C1.010625 0.721875 2.02125 1.44375 3.0625 2.1875 C15.47583258 13.04916601 20.60053979 31.11758439 22 47 C22.12626759 49.91862283 22.14056464 52.82903585 22.125 55.75 C22.12886719 56.49121094 22.13273437 57.23242188 22.13671875 57.99609375 C22.13030259 61.56989582 21.87303177 64.50787291 21 68 C-7.71 68 -36.42 68 -66 68 C-63.34302011 90.16824908 -63.34302011 90.16824908 -50.25 107.3125 C-37.45406931 116.15421794 -21.64000812 116.64390161 -6.73046875 114.12719727 C0.37964996 112.77301415 7.29341263 110.89373858 14.20703125 108.76953125 C17 108 17 108 20 108 C20.69951063 110.413762 21.38483919 112.83010234 22.0625 115.25 C22.26166016 115.93191406 22.46082031 116.61382813 22.66601562 117.31640625 C24.41765813 123.64690371 24.41765813 123.64690371 23 127 C21.3203125 127.95727539 21.3203125 127.95727539 19.125 128.59765625 C17.90828613 128.96189697 17.90828613 128.96189697 16.66699219 129.33349609 C15.78688477 129.57406738 14.90677734 129.81463867 14 130.0625 C13.0915332 130.31854004 12.18306641 130.57458008 11.24707031 130.83837891 C8.50529138 131.59114624 5.75710673 132.3056364 3 133 C2.26587891 133.1851416 1.53175781 133.3702832 0.77539062 133.56103516 C-19.59399987 138.44871426 -43.97371942 138.87826835 -62.41015625 127.81640625 C-78.33562368 116.64696077 -86.72353405 101.50386373 -90.17529297 82.50292969 C-93.79137939 59.17724587 -90.45033342 33.24242776 -76.90625 13.4609375 C-58.95308406 -9.71630542 -24.61298526 -18.00137071 0 0 Z M-55.40625 19.86328125 C-61.52758746 28.07007436 -66 38.68545332 -66 49 C-45.21 49 -24.42 49 -3 49 C-3 36.67365984 -4.49892984 27.75475492 -12 18 C-18.72845708 11.6145623 -24.93728205 9.54925033 -34.19140625 9.56616211 C-42.85486455 9.8200402 -49.59560586 13.54557618 -55.40625 19.86328125 Z " fill="#B9B9B8" transform="translate(3074,537)"/>
<path d="M0 0 C13.78923754 8.9567555 20.81601205 22.33121611 24.765625 37.9296875 C26.1927685 45.13127315 26.42580989 52.04963476 26.3984375 59.3671875 C26.40230469 60.42421875 26.40617187 61.48125 26.41015625 62.5703125 C26.40886719 63.57320312 26.40757812 64.57609375 26.40625 65.609375 C26.40512207 66.52315918 26.40399414 67.43694336 26.40283203 68.37841797 C26.2734375 70.4921875 26.2734375 70.4921875 25.2734375 71.4921875 C22.56505664 71.58733342 19.88225237 71.61773682 17.17358398 71.60571289 C16.32487732 71.60585892 15.47617065 71.60600494 14.60174561 71.6061554 C11.78264859 71.60545598 8.96361679 71.59766228 6.14453125 71.58984375 C4.19539933 71.58797967 2.24626695 71.58655572 0.2971344 71.58555603 C-4.84363082 71.58173005 -9.98436797 71.57189909 -15.12512207 71.56085205 C-20.36661398 71.55063965 -25.6081104 71.54605878 -30.84960938 71.54101562 C-41.14193944 71.53027689 -51.43424864 71.51319951 -61.7265625 71.4921875 C-61.27010304 74.54277008 -60.80387455 77.59178364 -60.3359375 80.640625 C-60.20751465 81.49970459 -60.0790918 82.35878418 -59.94677734 83.24389648 C-58.22462135 94.38442731 -54.60748209 104.11426741 -45.4375 111.28125 C-30.10247379 121.16382245 -12.77527037 119.75482141 4.33764648 116.13769531 C9.44620423 114.99515791 14.47081674 113.69460715 19.3984375 111.91015625 C21.65564829 111.40698635 23.09880818 111.77863725 25.2734375 112.4921875 C25.78034334 114.55300111 26.27868369 116.61592276 26.7734375 118.6796875 C27.051875 119.82824219 27.3303125 120.97679687 27.6171875 122.16015625 C28.1918876 125.07812757 28.32624729 127.54144035 28.2734375 130.4921875 C1.00182625 138.46805791 -29.24228389 146.52943806 -55.87890625 132.2109375 C-70.05236837 123.65631016 -79.01474971 110.97605785 -83.7265625 95.12890625 C-89.80649892 70.25378177 -87.59268449 42.94593576 -74.73046875 20.52734375 C-58.92693049 -3.40900952 -26.07677649 -14.42068156 0 0 Z M-51.9765625 24.98828125 C-57.9758108 33.57202715 -59.49391189 42.07315131 -61.7265625 52.4921875 C-40.6065625 52.4921875 -19.4865625 52.4921875 2.2734375 52.4921875 C1.09374633 38.33589341 -0.74023163 28.06896294 -11.1640625 18.1796875 C-25.21994368 8.92337551 -41.51870203 12.19005281 -51.9765625 24.98828125 Z " fill="#B9B9B8" transform="translate(2799.7265625,533.5078125)"/>
<path d="M0 0 C7.92 0 15.84 0 24 0 C24 12.87 24 25.74 24 39 C35.22 39 46.44 39 58 39 C58 45.27 58 51.54 58 58 C46.78 58 35.56 58 24 58 C24.12024089 71.54600263 24.12024089 71.54600263 24.2578125 85.09179688 C24.31785169 90.62585982 24.37596896 96.1598912 24.421875 101.6940918 C24.45906236 106.1616391 24.50550729 110.62900733 24.55806351 115.09639931 C24.57643152 116.7909763 24.59160249 118.48559142 24.60334396 120.18022728 C24.05705423 139.12041404 24.05705423 139.12041404 31 156 C36.13976692 159.35578054 40.46205753 159.37139534 46.375 159.1875 C47.20644531 159.17396484 48.03789062 159.16042969 48.89453125 159.14648438 C50.92997066 159.11139059 52.96507291 159.05759228 55 159 C55.69672071 162.4773868 56.38082542 165.95713507 57.0625 169.4375 C57.26166016 170.43072266 57.46082031 171.42394531 57.66601562 172.44726562 C57.84970703 173.39150391 58.03339844 174.33574219 58.22265625 175.30859375 C58.39547119 176.18314209 58.56828613 177.05769043 58.74633789 177.95874023 C58.87190063 178.96916382 58.87190063 178.96916382 59 180 C56.37793266 182.62206734 48.98970639 181.22999371 45.22924805 181.24023438 C43.10228546 181.24982069 40.97633984 181.28076885 38.84960938 181.3125 C27.34039318 181.40355486 17.65533537 180.21097664 9 172 C1.30297132 163.64150792 -0.15965743 152.82293539 -0.11352539 141.89526367 C-0.11367142 140.98745148 -0.11381744 140.07963928 -0.1139679 139.14431763 C-0.11327281 136.15217679 -0.10549931 133.16009868 -0.09765625 130.16796875 C-0.09579064 128.09003229 -0.09436741 126.01209538 -0.09336853 123.93415833 C-0.08955465 118.47122987 -0.07973399 113.00832809 -0.06866455 107.54541016 C-0.05842616 101.96842815 -0.05386571 96.39144182 -0.04882812 90.81445312 C-0.03811072 79.87628849 -0.02052304 68.93815064 0 58 C-6.93 58 -13.86 58 -21 58 C-21 51.73 -21 45.46 -21 39 C-14.07 39 -7.14 39 0 39 C0 26.13 0 13.26 0 0 Z " fill="#B9B9B8" transform="translate(2598,492)"/>
<path d="M0 0 C0.95108643 0.00016113 1.90217285 0.00032227 2.88208008 0.00048828 C12.30539375 0.15025236 23.47341315 1.0239421 31.5 6.375 C30.894627 12.79195383 29.96442671 19.38244105 27.5 25.375 C23.68274693 26.64741769 22.31807225 25.82014055 18.5625 24.5 C6.29385526 20.58273871 -5.93451521 20.05438686 -17.8125 25.625 C-28.62475607 31.57606574 -34.57018031 39.83761772 -38.640625 51.40625 C-43.60340506 68.5503993 -43.48453913 87.15799998 -35.1875 103.3125 C-28.66770474 113.86741246 -20.53784166 120.29541154 -8.5 123.375 C-5.42249551 123.7842146 -2.41428234 123.85117559 0.6875 123.8125 C1.91436523 123.80766602 1.91436523 123.80766602 3.16601562 123.80273438 C9.80798385 123.65236975 15.50843691 122.39100256 21.8125 120.25 C24.5 119.375 24.5 119.375 27.5 119.375 C28.19918305 121.95567563 28.88461049 124.53872847 29.5625 127.125 C29.76166016 127.85460937 29.96082031 128.58421875 30.16601562 129.3359375 C31.88961984 135.98844499 31.88961984 135.98844499 30.5 139.375 C27.91101454 140.49447973 25.57047987 141.31535718 22.875 142.0625 C22.17503906 142.27455078 21.47507812 142.48660156 20.75390625 142.70507812 C1.38919839 148.39952376 -20.33015281 146.89719645 -38.13671875 137.44921875 C-52.96503526 128.30422912 -62.19765288 113.50489675 -66.25 96.75 C-71.00819802 73.87301404 -69.12642569 49.45494125 -56.5703125 29.2890625 C-45.6654549 13.93996105 -31.47368729 4.69180354 -12.93212891 0.76977539 C-8.62566939 0.07076465 -4.35575654 -0.00696735 0 0 Z " fill="#B9B9B8" transform="translate(3240.5,527.625)"/>
<path d="M0 0 C6.58658323 5.25245871 10.35841899 11.07525697 13 19 C13.81884916 30.19541317 12.99853322 38.29687286 5.8125 47.1875 C-3.54171635 57.19850176 -16.31879641 62.1520493 -29.8046875 63.22265625 C-44.32897307 63.66570475 -59.62338558 59.82837215 -70.47265625 49.6953125 C-77.48160629 41.91555721 -80.50005422 34.25220491 -80.2421875 23.765625 C-79.41527358 14.32280157 -74.83610408 7.11393418 -67.671875 1.01953125 C-47.57806468 -13.79807416 -20.67004666 -13.8353726 0 0 Z " fill="#107EC1" transform="translate(536,12)"/>
<path d="M0 0 C8.25 0 16.5 0 25 0 C25 67.32 25 134.64 25 204 C16.75 204 8.5 204 0 204 C0 136.68 0 69.36 0 0 Z " fill="#B9B9B8" transform="translate(2898,467)"/>
</svg>
