<svg preserveAspectRatio="none" width="100%" height="100%" overflow="visible" style="display: block;" viewBox="0 0 105 28" fill="none" xmlns="http://www.w3.org/2000/svg">
<g id="capgemini 1">
<path id="Vector" fill-rule="evenodd" clip-rule="evenodd" d="M79.9711 7.04057C79.9739 6.41337 80.4521 5.88641 81.0407 5.86569C81.6281 5.84441 82.103 6.33553 82.1007 6.96329C82.0979 7.59105 81.6203 8.11745 81.0311 8.13929C80.4426 8.16001 79.9683 7.66833 79.9711 7.04057ZM63.819 6.65137C63.8218 5.99281 64.3476 5.44065 64.9944 5.41825C65.6395 5.39585 66.0853 5.91217 66.0831 6.57073C66.0803 7.22985 65.63 7.78257 64.9832 7.80441C64.3381 7.82681 63.8162 7.30993 63.819 6.65137ZM43.5307 10.7746C44.2067 10.7746 44.5947 11.3957 44.5275 12.2906C44.4491 13.3394 43.6842 14.5396 42.3553 15.4849C41.6598 13.5119 42.1772 10.7746 43.5307 10.7746ZM34.4856 25.02C33.7901 25.02 33.4216 24.3614 33.4216 23.6144C33.4216 21.604 34.8989 20.5377 36.72 19.6216C36.636 24.0165 35.6157 25.02 34.4856 25.02ZM81.8969 11.5614C81.8969 10.3854 81.8269 9.60033 81.0569 9.60033C80.7041 9.60033 80.535 9.66865 80.2259 9.77169C80.4991 13.7466 79.5992 17.2466 78.5027 17.2466C77.0635 17.2466 77.7826 8.72729 74.7334 8.72729C71.9222 8.72729 71.5184 15.5285 71.1992 15.5285C70.9814 15.5285 70.9489 13.7432 70.9595 12.3813C71.0783 11.7283 71.141 11.1426 71.141 10.6974C71.141 10.0646 70.8834 8.96865 69.4447 9.51689C69.4957 14.3789 68.5196 17.3194 67.422 17.3194C65.8131 17.3194 65.7958 12.9094 65.7958 11.6936C65.7958 10.5075 65.8798 8.92105 64.1158 9.48609C63.8509 13.7286 62.7393 16.9297 62.0382 16.9297C60.9915 16.9297 61.201 9.60201 58.9386 9.60201C56.9063 9.60201 56.2769 16.5421 55.853 16.5421C55.0959 16.5421 56.0899 8.72729 53.1538 8.72729C51.6138 8.72729 51.0017 11.3374 50.3986 14.2568C50.281 14.8235 50.1572 14.8403 50.1376 14.2019C50.1224 13.6567 50.1177 13.1114 50.1236 12.5661C50.8651 9.63057 49.9612 8.54641 48.5987 9.32873C49.0383 14.7451 46.5508 17.3928 44.6401 17.3928C43.9491 17.3928 43.4081 17.0999 43.0015 16.6362C45.2908 15.2334 46.3095 13.6234 46.3095 12.052C46.3095 10.3457 45.3295 9.36401 43.6999 9.36401C41.4291 9.36401 40.1584 11.7014 40.1584 13.6872C40.1584 14.7552 40.3589 15.6641 40.6876 16.4128C39.9075 16.7846 39.1717 17.1055 38.4868 17.4185C38.4286 15.3745 38.1962 13.2286 38.0203 11.2484C36.8119 10.9169 36.4591 11.4976 36.3655 12.5734C36.1516 15.0257 35.2411 16.5494 34.4369 16.5494C33.831 16.5494 33.4625 15.813 33.4183 15.0301C33.1937 11.0989 36.3891 10.0046 38.0601 10.5742C38.4067 9.70785 38.0265 9.08289 36.519 9.08289C34.6911 9.08289 33.3236 10.1934 32.3212 11.6158C31.6526 12.5661 30.8798 13.2398 29.8539 14.0541C29.8796 13.8188 29.8925 13.5853 29.8925 13.3546C29.8925 10.5809 28.39 9.36457 26.9525 9.36457C25.7642 9.36457 25.0171 10.0774 24.5854 11.1683C24.4784 10.0741 24.2606 9.60201 23.6222 9.60201C23.3478 9.60201 22.972 9.67873 22.5638 9.87529C22.7503 10.4868 22.8231 11.8414 22.8231 12.7335C22.8231 16.0689 21.8666 17.5625 20.9459 17.5625C19.8943 17.5625 19.7268 13.6077 19.64 12.0688C19.4752 12.0057 19.3001 11.9734 19.1237 11.9736C18.1739 11.9736 18.0496 13.2504 17.8144 14.4237C17.554 15.7234 16.8042 17.3603 15.6937 17.3603C15.0223 17.3603 14.6045 16.7124 14.5513 15.5509C14.4421 13.1933 16.4055 10.4 19.4776 11.2686C19.8808 10.3289 19.248 9.61433 17.974 9.61433C15.7279 9.61433 13.872 11.2943 13.0622 13.2812C12.239 15.1013 10.8021 17.7769 7.87383 17.7769C5.80743 17.7769 4.22655 15.9782 4.22655 12.1993C4.22655 8.94177 6.28175 5.84777 8.47415 5.84777C10.0086 5.84777 10.3653 7.35529 10.2292 8.76985C11.0227 9.40769 12.3275 8.81633 12.3275 7.22313C12.3275 6.12553 11.4354 4.26521 8.55647 4.26521C4.99207 4.26577 1.84375 7.81505 1.84375 12.4804C1.84375 16.998 4.13863 19.6681 7.38775 19.6681C9.43679 19.6681 11.3716 18.4988 12.7066 16.3428C13.041 18.2305 14.3284 19.0252 15.2939 19.0252C16.8557 19.0252 17.8743 18.0149 18.4321 16.648C18.7793 18.0183 19.5135 19.0308 20.7309 19.0308C21.5894 19.0308 22.2591 18.5962 22.7631 17.8985C22.5627 22.6585 22.3101 25.6937 25.1252 25.0961C24.6912 23.7437 24.5529 21.2786 24.5529 19.0677C24.5529 13.0152 25.5519 11.0233 26.8047 11.0233C27.7119 11.0233 28.0053 12.178 28.0053 13.4117C28.0053 14.072 27.9437 14.8302 27.7746 15.5162C26.2329 16.4845 25.0054 17.25 25.0054 18.2233C25.0054 18.9933 25.576 19.0649 26.0716 19.0649C27.2543 19.0649 28.6756 17.9063 29.4613 15.7189C30.149 15.3045 30.8378 14.8274 31.4986 14.1795C31.4752 14.4028 31.4634 14.6274 31.4633 14.8521C31.4633 17.0232 32.4153 18.333 33.9335 18.333C35.1223 18.333 36.0155 17.4913 36.6439 16.2291C36.6821 16.8997 36.7073 17.5711 36.7195 18.2429C34.307 19.3573 31.6363 20.4901 31.6363 23.6345C31.6363 25.2613 32.8123 26.4861 34.3445 26.4861C37.7062 26.4861 38.4717 22.9424 38.5042 18.8253C39.5979 18.3504 40.4138 17.9853 41.3535 17.5205C42.1582 18.5262 43.2507 19.0308 44.2543 19.0308C46.151 19.0308 47.5751 18.0261 48.7203 15.99C48.9219 17.5395 49.3251 19.0308 50.1499 19.0308C51.6535 19.0308 51.9571 11.175 53.0759 11.175C53.9327 11.175 53.2288 19.6742 55.4907 19.6742C57.4271 19.6742 57.7895 12.1948 58.7325 12.1948C59.4 12.1948 59.4515 19.0313 61.5599 19.0313C62.5959 19.0313 63.7221 17.7881 64.2855 15.178C64.5498 16.9134 65.4273 19.0319 67.1415 19.0319C68.1405 19.0319 69.0007 18.0205 69.6631 16.6777C69.8468 18.0597 70.2383 19.0313 70.9948 19.0313C72.9655 19.0313 72.8983 11.1924 74.4579 11.1924C75.6747 11.1924 75.2979 19.0313 78.1936 19.0313C79.5729 19.0313 80.2253 17.8581 80.6139 16.3865C81.1471 18.5514 82.0083 19.0313 82.7151 19.0313C83.1642 19.0313 83.5035 18.8745 83.9476 18.3442C81.7076 17.3732 81.8969 13.8412 81.8969 11.5614ZM102.565 12.332C102.078 11.3582 101.052 10.9404 100.001 10.9897C98.9859 11.0378 98.245 11.683 97.6805 12.477C97.041 13.3747 96.5924 14.4001 96.0705 15.3667C95.5671 16.2991 95.0261 17.2119 94.3015 17.992C93.4995 18.8572 92.4893 19.509 91.3564 19.8517C91.8806 20.2286 92.6069 20.3137 93.2335 20.3373C93.9403 20.3641 94.6571 20.2997 95.3537 20.1749C96.6266 19.9475 98.0003 19.5023 98.9405 18.5733C97.4733 18.5929 96.2883 17.6061 96.1836 16.1199C97.1283 17.2623 98.5569 17.7025 99.9866 17.2959C101.239 16.9397 102.245 15.9502 102.652 14.7177C102.909 13.9347 102.934 13.0846 102.565 12.332ZM102.518 11.2512C102.041 9.66697 101.075 8.27873 99.7923 7.10161C98.4068 5.83769 96.7621 4.87841 95.0367 4.15601C94.8974 4.09808 94.7576 4.04152 94.6173 3.98633C92.4938 6.52761 85.1354 8.42601 85.1354 13.755C85.1354 15.8393 86.4553 17.7876 88.3895 18.5693C89.5872 18.9737 90.8943 18.9041 92.0424 18.375C93.1591 17.8677 94.0097 16.9739 94.6946 15.976C95.4159 14.9243 95.9669 13.7684 96.654 12.6932C97.2919 11.6964 98.1078 10.6996 99.3179 10.4185C100.415 10.1631 101.715 10.4487 102.518 11.2512Z" fill="var(--fill-0, white)" fill-opacity="0.8"/>
</g>
</svg>
