<svg preserveAspectRatio="none" width="100%" height="100%" overflow="visible" style="display: block;" viewBox="0 0 94 28" fill="none" xmlns="http://www.w3.org/2000/svg">
<g id="hemnet 1">
<path id="Vector" fill-rule="evenodd" clip-rule="evenodd" d="M1.72415 13.9777C1.72415 7.79253 6.75798 2.78613 12.9773 2.78613C19.1055 2.78613 24.0822 7.64693 24.2272 13.7061C24.3717 19.7541 19.3955 24.9862 13.315 25.1637C10.7872 25.2382 8.41895 24.4783 6.50375 23.1253C6.43552 23.0762 6.3521 23.0528 6.26827 23.0592C6.18442 23.0657 6.10557 23.1016 6.04567 23.1606L4.48999 24.7079C4.33929 24.8598 4.16001 24.9801 3.96247 25.0622C3.76494 25.1444 3.55309 25.1864 3.33919 25.1861C2.92647 25.1861 2.49695 25.0321 2.18783 24.7079C2.03672 24.5579 1.91678 24.3796 1.83493 24.1831C1.75308 23.9866 1.71094 23.7759 1.71094 23.5629C1.71094 23.3501 1.75308 23.1393 1.83493 22.9429C1.91678 22.7463 2.03672 22.568 2.18783 22.418L3.74351 20.8707C3.80231 20.8131 3.83865 20.7363 3.84603 20.6542C3.85342 20.5721 3.83137 20.4901 3.78383 20.4227C2.43803 18.5437 1.71708 16.2891 1.72415 13.9777ZM4.57567 13.9777C4.57567 18.591 8.64126 22.3329 12.9773 22.3329C17.6836 22.3329 21.4877 18.4812 21.3763 13.7756C21.271 9.34373 17.6366 5.72949 13.1806 5.62477C8.44862 5.51333 4.57567 9.29725 4.57567 13.9777ZM32.3478 12.1505H37.5681V7.18437H40.1788V19.7121H37.5681V14.6329H32.3478V19.7121H29.8513V7.18437H32.3478V12.1505ZM43.2163 11.9466C43.6081 11.5499 44.0749 11.235 44.5895 11.0202C45.1042 10.8055 45.6563 10.6951 46.2139 10.6956C48.9227 10.6956 50.5405 12.3823 50.5405 15.208C50.5387 15.4469 50.5271 15.6854 50.5058 15.9231V15.987L50.4408 15.9875H44.3368C44.4203 17.0325 45.3135 17.8115 46.4419 17.8115C47.3978 17.8115 48.0379 17.3859 48.3453 16.5464L48.366 16.4893L50.4335 17.0997L50.4156 17.1619C50.0197 18.4997 48.7636 19.9294 46.4239 19.9294C45.2099 19.9294 44.0876 19.4937 43.2639 18.703C42.374 17.8495 41.9042 16.6646 41.9042 15.2775C41.9042 13.9783 42.3701 12.795 43.2163 11.9466ZM46.2475 12.7317C45.1399 12.7317 44.4746 13.5247 44.3889 14.2947H48.1073C48.0491 13.5269 47.5344 12.7317 46.2475 12.7317ZM62.352 10.7572C61.1441 10.7572 60.2783 11.1923 59.6366 12.1241C59.1768 11.2539 58.2517 10.7577 57.0796 10.7577C56.2643 10.7577 55.1896 11.1139 54.6302 11.8917V11.0221H52.2468V19.7127H54.7433V14.6245C54.7433 13.6501 55.3772 12.9966 56.3203 12.9966C57.2655 12.9966 57.8076 13.5645 57.8076 14.5545V19.7121H60.191V14.6245C60.191 13.6658 60.812 12.9966 61.7013 12.9966C62.954 12.9966 63.1416 13.9727 63.1416 14.5545V19.7121H65.525V14.0841C65.525 13.005 65.1862 12.1258 64.5455 11.5417C63.9906 11.0355 63.2116 10.7572 62.352 10.7572ZM70.2441 11.9113C70.8399 11.0769 71.8575 10.7745 72.6471 10.7745C74.5947 10.7745 75.8049 12.1017 75.8049 14.2403V19.7115H73.3084V14.6413C73.3084 13.5958 72.7535 12.9961 71.7852 12.9961C70.8635 12.9961 70.2441 13.6854 70.2441 14.7107V19.7115H67.7476V11.0204H70.2441V11.9113ZM81.7818 10.6956C81.2242 10.6951 80.6721 10.8055 80.1576 11.0202C79.6431 11.235 79.1764 11.5499 78.7847 11.9466C77.9391 12.795 77.4731 13.9777 77.4731 15.2775C77.4731 16.6651 77.943 17.8495 78.8328 18.7035C79.656 19.4937 80.7783 19.9299 81.9929 19.9299C84.332 19.9299 85.5881 18.4997 85.9835 17.1619L86.0019 17.1003L83.9344 16.4893L83.9137 16.5464C83.6057 17.3864 82.9656 17.812 82.0103 17.812C80.8819 17.812 79.9887 17.0325 79.9047 15.9875H86.0736L86.0742 15.9231C86.0742 15.9142 86.0764 15.8884 86.0792 15.8503C86.0887 15.7232 86.1089 15.46 86.1089 15.208C86.1089 12.3823 84.4911 10.6956 81.7818 10.6956ZM79.9075 14.2947C79.9943 13.5247 80.659 12.7323 81.7655 12.7323C83.0535 12.7323 83.5682 13.5269 83.6264 14.2947H79.9075ZM92.9908 11.0226V13.1674H91.2883V16.6259C91.2883 17.2811 91.5504 17.5371 92.2224 17.5371C92.4935 17.5371 92.7964 17.5029 92.9095 17.471L92.9908 17.448V19.5816L92.9504 19.5984C92.7578 19.6779 92.3255 19.8123 91.6047 19.8123C89.8693 19.8123 88.7919 18.7713 88.7919 17.0963V13.1674H87.2031V11.0226H87.7189C88.5331 11.0226 89.0187 10.5477 89.0187 9.75253V8.42701H91.2883V11.0226H92.9908ZM17.8275 17.6743V11.5888C17.8275 11.5319 17.8135 11.476 17.7871 11.4257C17.7605 11.3755 17.7221 11.3324 17.6752 11.3004L13.0899 8.22373C13.0313 8.18385 12.962 8.16251 12.8911 8.16251C12.8202 8.16251 12.7509 8.18385 12.6923 8.22373L8.10704 11.3004C8.05997 11.3323 8.02143 11.3753 7.99479 11.4256C7.96813 11.4759 7.95419 11.5319 7.95415 11.5888V17.6692C7.95415 17.8624 8.11151 18.0187 8.30583 18.0187H11.1209C11.3147 18.0187 11.4726 17.8619 11.4726 17.6692V14.7572C11.4726 14.5635 11.6294 14.4072 11.8243 14.4072H13.9579C14.1522 14.4072 14.3096 14.564 14.3096 14.7567V17.6743C14.3096 17.8647 14.4647 18.0187 14.6562 18.0187H17.4809C17.5263 18.0189 17.5713 18.0103 17.6133 17.993C17.6553 17.9758 17.6936 17.9505 17.7259 17.9186C17.7581 17.8865 17.7837 17.8484 17.8012 17.8066C17.8189 17.7647 17.8274 17.7198 17.8275 17.6743Z" fill="var(--fill-0, white)" fill-opacity="0.8"/>
</g>
</svg>
