<svg preserveAspectRatio="none" width="100%" height="100%" overflow="visible" style="display: block;" viewBox="0 0 16 16" fill="none" xmlns="http://www.w3.org/2000/svg">
<g id="camera-flash 2">
<path id="Union" d="M9.49977 0C9.65369 0 9.79955 0.071092 9.8943 0.192383C9.98885 0.313644 10.0223 0.471899 9.98512 0.621094L9.1404 4H13.4998C13.6822 4 13.8504 4.09985 13.9382 4.25977C14.0259 4.41967 14.0195 4.61471 13.9216 4.76855L6.92165 15.7686C6.79517 15.9671 6.54677 16.0504 6.32594 15.9688C6.10553 15.8869 5.97161 15.6625 6.00466 15.4297L6.9236 9H2.49977C2.34589 8.99993 2.19995 8.92892 2.10524 8.80762C2.01077 8.68638 1.97723 8.52804 2.01442 8.37891L4.01442 0.378906C4.07005 0.156396 4.27043 0.000103329 4.49977 0H9.49977ZM3.1404 8H7.49977C7.64467 8 7.78274 8.06342 7.8777 8.17285C7.97236 8.28221 8.01523 8.42711 7.99489 8.57031L7.32204 13.2744L12.5886 5H8.49977C8.34589 4.99993 8.19995 4.92892 8.10524 4.80762C8.01077 4.68638 7.97723 4.52804 8.01442 4.37891L8.85915 1H4.8904L3.1404 8Z" fill="url(#paint0_linear_0_75)"/>
</g>
<defs>
<linearGradient id="paint0_linear_0_75" x1="7.99989" y1="0" x2="7.99989" y2="15.9999" gradientUnits="userSpaceOnUse">
<stop stop-color="#BCCCFF"/>
<stop offset="1" stop-color="#809FFF"/>
</linearGradient>
</defs>
</svg>
