<svg preserveAspectRatio="none" width="100%" height="100%" overflow="visible" style="display: block;" viewBox="0 0 16 16" fill="none" xmlns="http://www.w3.org/2000/svg">
<g id="spaceship 1" clip-path="url(#clip0_0_128)">
<path id="Union" d="M2.44652 11.4989C2.99157 11.4989 3.51494 11.7154 3.90062 12.1005C4.28617 12.4869 4.50256 13.0107 4.50218 13.5566C4.50176 14.1024 4.28475 14.6258 3.89867 15.0116C3.19967 15.7106 0.985081 15.9589 0.548081 16.0009C0.53223 16.0019 0.516079 16.0019 0.500229 16.0009C0.430555 16.0007 0.361701 15.9854 0.298081 15.957C0.234403 15.9285 0.177795 15.8867 0.131088 15.8349C0.0843886 15.7831 0.0483232 15.7224 0.0265963 15.6562C0.00490331 15.5899 -0.00283486 15.5195 0.00413531 15.4501C0.0462278 15.0123 0.293605 12.8004 0.993393 12.1005C1.37897 11.7155 1.90163 11.4991 2.44652 11.4989ZM15.4739 0.000901599C15.6157 -0.00643552 15.7545 0.0467559 15.8547 0.147386C15.9548 0.248036 16.0073 0.386515 15.9993 0.528245C15.8374 3.37863 14.9648 5.68651 13.8254 7.52043C14.3196 8.79293 14.3631 10.2001 13.9407 11.5038C13.4903 12.8933 12.543 14.0684 11.2815 14.8046C11.0854 14.9188 10.8365 14.8869 10.676 14.7265L8.60863 12.6581C8.51985 12.7129 8.43401 12.7652 8.35082 12.8144C7.95145 13.0502 7.61802 13.2224 7.38304 13.3368C7.26571 13.394 7.1725 13.4369 7.10765 13.4657C7.07557 13.48 7.05026 13.4913 7.03246 13.4989C7.02369 13.5027 7.01605 13.5056 7.01097 13.5077L7.00316 13.5116H7.00218L6.81273 13.0488L7.00121 13.5116C6.81493 13.5877 6.60154 13.5445 6.45921 13.4023L2.59789 9.54192C2.45633 9.40036 2.41302 9.18766 2.48753 9.00188L2.9514 9.1884C2.51859 9.01443 2.48939 9.00199 2.48753 9.0009V8.99993L2.49144 8.99211C2.49354 8.987 2.4965 8.97951 2.50023 8.97063C2.50775 8.95271 2.51825 8.92683 2.53246 8.89446C2.56104 8.8293 2.60378 8.7359 2.66039 8.61809C2.77383 8.38198 2.94561 8.04752 3.17992 7.64641C3.22952 7.5615 3.28179 7.47344 3.33714 7.38274L1.27757 5.32317C1.11704 5.16254 1.085 4.91385 1.19945 4.7177C1.93173 3.46285 3.09893 2.52029 4.47972 2.06828C5.77605 1.64404 7.17644 1.6799 8.44554 2.16496C10.2834 1.02141 12.6028 0.150886 15.4739 0.000901599ZM13.1047 8.57121C12.5274 9.34352 11.9139 10.0168 11.303 10.5927C10.6658 11.1933 10.0332 11.69 9.45921 12.0947L11.0979 13.7343C11.9865 13.1195 12.6542 12.2298 12.9895 11.1952C13.2661 10.3416 13.302 9.43484 13.1047 8.57121ZM9.98265 2.44621C8.37487 3.26196 7.10274 4.32095 6.12132 5.36711C5.16205 6.38972 4.48237 7.39853 4.0432 8.15032C3.82393 8.52569 3.66481 8.83624 3.56175 9.05071C3.55736 9.05984 3.55324 9.06926 3.54906 9.07805L6.92015 12.4491C6.92818 12.4453 6.93723 12.4425 6.94554 12.4384C7.15908 12.3344 7.46809 12.1739 7.84203 11.9531C8.59097 11.5108 9.59681 10.8272 10.6174 9.86516C11.6619 8.88051 12.7158 7.60396 13.5334 5.997L9.98265 2.44621ZM9.00023 5.99993C9.55238 6.00005 10.0002 6.44775 10.0002 6.99993C10.0002 7.55213 9.55241 7.9998 9.00023 7.99993C8.44794 7.99993 8.00023 7.55221 8.00023 6.99993C8.00027 6.44767 8.44797 5.99993 9.00023 5.99993ZM7.39085 2.89055C6.53393 2.70136 5.63609 2.74205 4.79124 3.01848C3.7644 3.35458 2.87891 4.01675 2.26781 4.89934L3.89671 6.52825C4.2987 5.95276 4.79379 5.32005 5.39183 4.68254C5.96176 4.07502 6.62675 3.46414 7.39085 2.89055ZM14.9563 1.03996C13.4558 1.17477 12.1256 1.52157 10.9524 2.00188L13.9807 5.0302C14.4629 3.85922 14.8153 2.53395 14.9563 1.03996Z" fill="url(#paint0_linear_0_128)"/>
</g>
<defs>
<linearGradient id="paint0_linear_0_128" x1="8.00087" y1="-7.49632e-05" x2="8.00087" y2="16.0013" gradientUnits="userSpaceOnUse">
<stop stop-color="#BCCCFF"/>
<stop offset="1" stop-color="#809FFF"/>
</linearGradient>
<clipPath id="clip0_0_128">
<rect width="16" height="16" fill="white"/>
</clipPath>
</defs>
</svg>
