<svg preserveAspectRatio="none" width="100%" height="100%" overflow="visible" style="display: block;" viewBox="0 0 16 16" fill="none" xmlns="http://www.w3.org/2000/svg">
<g id="arrows-maximize 1" clip-path="url(#clip0_0_14)">
<path id="Union" d="M14.9648 8C15.2605 8.0003 15.5 8.24045 15.5 8.53613V14.9648C15.5 15.0348 15.4853 15.1043 15.458 15.1699C15.4544 15.1787 15.4494 15.1868 15.4453 15.1953C15.4198 15.2485 15.3878 15.2997 15.3438 15.3438C15.2997 15.3878 15.2485 15.4198 15.1953 15.4453C15.1868 15.4494 15.1787 15.4544 15.1699 15.458C15.1043 15.4853 15.0348 15.5 14.9648 15.5H8.53613C8.24045 15.5 8.0003 15.2605 8 14.9648C8 14.669 8.24027 14.4287 8.53613 14.4287H13.6709L9.22852 9.98633C9.01931 9.77712 9.01931 9.43773 9.22852 9.22852C9.43773 9.01931 9.77712 9.01931 9.98633 9.22852L14.4287 13.6709V8.53613C14.4287 8.24027 14.669 8 14.9648 8ZM7.46484 0.5C7.76045 0.500302 8 0.740452 8 1.03613C7.99977 1.33162 7.76031 1.57196 7.46484 1.57227H2.33008L6.77246 6.01465C6.98097 6.22391 6.98144 6.56348 6.77246 6.77246C6.56348 6.98144 6.22391 6.98097 6.01465 6.77246L1.57227 2.33008V7.46484C1.57196 7.76031 1.33162 7.99977 1.03613 8C0.740452 8 0.500302 7.76045 0.5 7.46484V1.03613C0.5 0.98242 0.509682 0.930779 0.524414 0.881836C0.52961 0.864506 0.534029 0.846912 0.541016 0.830078C0.582182 0.731282 0.651101 0.646405 0.739258 0.587891C0.748128 0.582006 0.758447 0.578542 0.767578 0.573242C0.787809 0.561477 0.808283 0.550097 0.830078 0.541016C0.846912 0.534029 0.864506 0.52961 0.881836 0.524414C0.898031 0.519539 0.913866 0.513108 0.930664 0.509766C0.965422 0.50286 1.00082 0.499973 1.03613 0.5H7.46484Z" fill="url(#paint0_linear_0_14)"/>
</g>
<defs>
<linearGradient id="paint0_linear_0_14" x1="8" y1="0.5" x2="8" y2="15.5" gradientUnits="userSpaceOnUse">
<stop stop-color="#BCCCFF"/>
<stop offset="1" stop-color="#809FFF"/>
</linearGradient>
<clipPath id="clip0_0_14">
<rect width="16" height="16" fill="white"/>
</clipPath>
</defs>
</svg>
