<svg preserveAspectRatio="none" width="100%" height="100%" overflow="visible" style="display: block;" viewBox="0 0 16 16" fill="none" xmlns="http://www.w3.org/2000/svg">
<g id="setup-preferences 1" clip-path="url(#clip0_0_6)">
<g id="Union">
<path d="M11 9.5C12.4865 9.5 13.7199 10.5812 13.958 12H15.5C15.7761 12 16 12.2239 16 12.5C16 12.7761 15.7761 13 15.5 13H13.958C13.7199 14.4188 12.4865 15.5 11 15.5C9.34315 15.5 8 14.1569 8 12.5C8 10.8431 9.34315 9.5 11 9.5ZM11 10.5C9.89543 10.5 9 11.3954 9 12.5C9 13.6046 9.89543 14.5 11 14.5C12.1046 14.5 13 13.6046 13 12.5C13 11.3954 12.1046 10.5 11 10.5ZM5.5 12C5.77614 12 6 12.2239 6 12.5C6 12.7761 5.77614 13 5.5 13H0.5C0.223858 13 0 12.7761 0 12.5C0 12.2239 0.223858 12 0.5 12H5.5ZM5 0.5C6.65685 0.5 8 1.84315 8 3.5C8 5.15685 6.65685 6.5 5 6.5C3.51353 6.5 2.28007 5.41882 2.04199 4H0.5C0.223858 4 0 3.77614 0 3.5C0 3.22386 0.223858 3 0.5 3H2.04199C2.28007 1.58118 3.51353 0.5 5 0.5ZM5 1.5C3.89543 1.5 3 2.39543 3 3.5C3 4.60457 3.89543 5.5 5 5.5C6.10457 5.5 7 4.60457 7 3.5C7 2.39543 6.10457 1.5 5 1.5ZM15.5 3C15.7761 3 16 3.22386 16 3.5C16 3.77614 15.7761 4 15.5 4H10.5C10.2239 4 10 3.77614 10 3.5C10 3.22386 10.2239 3 10.5 3H15.5Z" fill="var(--fill-0, white)"/>
<path d="M11 9.5C12.4865 9.5 13.7199 10.5812 13.958 12H15.5C15.7761 12 16 12.2239 16 12.5C16 12.7761 15.7761 13 15.5 13H13.958C13.7199 14.4188 12.4865 15.5 11 15.5C9.34315 15.5 8 14.1569 8 12.5C8 10.8431 9.34315 9.5 11 9.5ZM11 10.5C9.89543 10.5 9 11.3954 9 12.5C9 13.6046 9.89543 14.5 11 14.5C12.1046 14.5 13 13.6046 13 12.5C13 11.3954 12.1046 10.5 11 10.5ZM5.5 12C5.77614 12 6 12.2239 6 12.5C6 12.7761 5.77614 13 5.5 13H0.5C0.223858 13 0 12.7761 0 12.5C0 12.2239 0.223858 12 0.5 12H5.5ZM5 0.5C6.65685 0.5 8 1.84315 8 3.5C8 5.15685 6.65685 6.5 5 6.5C3.51353 6.5 2.28007 5.41882 2.04199 4H0.5C0.223858 4 0 3.77614 0 3.5C0 3.22386 0.223858 3 0.5 3H2.04199C2.28007 1.58118 3.51353 0.5 5 0.5ZM5 1.5C3.89543 1.5 3 2.39543 3 3.5C3 4.60457 3.89543 5.5 5 5.5C6.10457 5.5 7 4.60457 7 3.5C7 2.39543 6.10457 1.5 5 1.5ZM15.5 3C15.7761 3 16 3.22386 16 3.5C16 3.77614 15.7761 4 15.5 4H10.5C10.2239 4 10 3.77614 10 3.5C10 3.22386 10.2239 3 10.5 3H15.5Z" fill="url(#paint0_linear_0_6)"/>
</g>
</g>
<defs>
<linearGradient id="paint0_linear_0_6" x1="8" y1="0.5" x2="8" y2="15.5" gradientUnits="userSpaceOnUse">
<stop stop-color="#BCCCFF"/>
<stop offset="1" stop-color="#809FFF"/>
</linearGradient>
<clipPath id="clip0_0_6">
<rect width="16" height="16" fill="white"/>
</clipPath>
</defs>
</svg>
