<svg preserveAspectRatio="none" width="100%" height="100%" overflow="visible" style="display: block;" viewBox="0 0 100 28" fill="none" xmlns="http://www.w3.org/2000/svg">
<g id="mongodb 1" clip-path="url(#clip0_0_41)">
<path id="Union" d="M58.2891 11.3057C58.8034 11.3045 59.3167 11.3864 59.8047 11.5488H62.9043V12.4414L60.9658 12.2236C60.9642 12.2238 60.9582 12.2253 60.958 12.2334C61.8414 12.855 62.165 14.0709 62.165 14.7373C62.1692 15.3518 61.9891 15.954 61.6504 16.4678C61.2986 17.0027 60.811 17.4345 60.2373 17.7188C59.7168 17.9857 59.1262 18.1372 58.4805 18.1709C58.3882 18.1757 58.2947 18.1787 58.2002 18.1787C58.1326 18.1787 58.0662 18.1772 58.002 18.1748C57.8095 18.1676 57.6323 18.1488 57.4707 18.1152C57.3153 18.0816 57.1447 18.0328 56.9629 17.9609C56.9024 17.937 56.8403 17.9112 56.7773 17.8818L55.8398 19.1416C55.83 19.1514 55.8398 19.1699 55.8398 19.1699C55.8417 19.1716 55.8492 19.1777 55.8564 19.1777H59.4609C60.5165 19.1777 61.3639 19.403 61.9043 19.8271C62.5357 20.3311 62.8047 20.854 62.8047 21.5918C62.8046 22.2945 62.58 22.9072 62.1377 23.4111C61.7051 23.9151 61.1204 24.3036 60.3994 24.5654C59.7759 24.7933 59.0987 24.9255 58.3896 24.9551C58.2884 24.9593 58.1865 24.9609 58.084 24.9609C57.9364 24.9609 57.7923 24.9578 57.6523 24.9502C56.6723 24.8968 55.882 24.6568 55.2988 24.2402C54.6227 23.7628 54.2812 23.1228 54.2812 22.3486C54.2838 21.9214 54.4046 21.5031 54.6309 21.1406C54.8283 20.799 55.1183 20.5102 55.4795 20.2666H55.1104C54.9798 20.2664 54.8514 20.2306 54.7402 20.1621C54.6291 20.0936 54.5393 19.9954 54.4805 19.8789C54.4216 19.7623 54.3964 19.6311 54.4072 19.501C54.4181 19.371 54.4648 19.2467 54.542 19.1416L55.8301 17.3945C55.4102 17.1034 55.0585 16.721 54.8037 16.2773C54.5419 15.8182 54.416 15.3056 54.416 14.7471C54.4137 14.1342 54.5886 13.5332 54.9199 13.0176C55.2531 12.4857 55.722 12.0712 56.3154 11.7646C56.9117 11.4595 57.5696 11.3057 58.2891 11.3057ZM56.9287 20.2588C56.5871 20.4296 56.325 20.6649 56.1094 20.9883C55.8939 21.313 55.7852 21.683 55.7852 22.0791C55.7853 22.7089 56.0204 23.2046 56.4795 23.5293C56.9386 23.8526 57.5699 24.0244 58.3271 24.0244C59.1909 24.0244 59.8948 23.8171 60.417 23.4111C60.9392 23.0066 61.2011 22.4665 61.2012 21.8086C61.2012 21.3578 61.057 20.9696 60.7686 20.6826C60.4802 20.3931 60.0478 20.2588 59.3721 20.2588H56.9287ZM5.9707 -0.00976562C5.97597 -0.00732041 5.98053 -0.00338105 5.98438 0.000976562C6.60839 0.879611 7.26762 1.73288 7.95898 2.55957C16.2748 13.1673 6.64805 20.3174 6.63965 20.3174L6.55859 20.3789C6.5222 20.9353 6.45917 21.609 6.40527 22.1436C6.35136 22.6783 6.30664 23.0742 6.30664 23.0742H5.58984C5.58984 23.0742 5.41069 21.4849 5.33789 20.3789L5.25781 20.3262C5.25781 20.3262 -4.37012 13.1674 3.94727 2.55957C4.63865 1.73285 5.29783 0.879642 5.92188 0.000976562C5.92576 -0.00342959 5.93021 -0.00731722 5.93555 -0.00976562C5.94098 -0.0122173 5.94717 -0.0136719 5.95312 -0.0136719C5.95905 -0.0136568 5.9653 -0.0122026 5.9707 -0.00976562ZM19.9541 8.00781L23.9648 17.7354L27.9775 7.98145H31.0186V8.63477L30.4961 8.64355C30.3466 8.64764 30.2049 8.71024 30.1006 8.81738C29.9963 8.92459 29.9374 9.06819 29.9375 9.21777L29.9658 19.0088C29.9701 19.1573 30.0306 19.2994 30.1357 19.4043C30.2409 19.5092 30.3828 19.5693 30.5312 19.5732H31.0176V20.2178H27.4561V19.5732H27.7803C28.0939 19.5634 28.3457 19.3126 28.3457 18.999L28.2842 10.0059L24.0117 20.2178C23.9487 20.3716 23.8039 20.4697 23.6416 20.4697C23.4808 20.4696 23.3364 20.3716 23.2734 20.2178L18.9014 9.77344V18.999C18.9038 19.1468 18.9634 19.2885 19.0674 19.3936C19.1714 19.4986 19.3122 19.5595 19.46 19.5635L19.7754 19.5732V20.2178H16.7344V19.5732L17.2471 19.5635C17.3948 19.5595 17.5356 19.4986 17.6396 19.3936C17.7436 19.2885 17.8032 19.1468 17.8057 18.999L17.8945 9.20898C17.8957 9.13443 17.8823 9.06037 17.8545 8.99121C17.8266 8.92198 17.785 8.85865 17.7324 8.80566C17.6516 8.72495 17.5503 8.66923 17.4404 8.64648L17.3281 8.63477H16.8242V7.98145H19.9443L19.9541 8.00781ZM37.084 11.3057C37.8837 11.3 38.6725 11.4977 39.375 11.8799C40.0612 12.254 40.6276 12.8135 41.0117 13.4941C41.4148 14.1842 41.6201 14.9919 41.6201 15.8877C41.6201 16.7837 41.4149 17.592 41.0117 18.2822C40.6099 18.971 40.0632 19.5193 39.373 19.8945C38.7777 20.2326 38.1086 20.4188 37.3926 20.46C37.2903 20.4658 37.1871 20.4687 37.083 20.4688C36.9832 20.4694 36.8835 20.4665 36.7842 20.4609C36.0883 20.4216 35.4084 20.2288 34.7939 19.8945C34.1039 19.5194 33.558 18.9722 33.1562 18.2822C32.7531 17.5906 32.5469 16.7837 32.5469 15.8877C32.5469 14.9919 32.7526 14.1842 33.1543 13.4941C33.5574 12.8041 34.1034 12.2579 34.792 11.8799C35.4723 11.4949 36.2511 11.3057 37.084 11.3057ZM69.0928 11.3135C69.789 11.3526 70.4693 11.5454 71.084 11.8799C71.7686 12.2563 72.3363 12.8151 72.7227 13.4941C73.1257 14.1842 73.331 14.9919 73.3311 15.8877C73.3311 16.7837 73.1259 17.592 72.7227 18.2822C72.3361 18.9608 71.7685 19.5185 71.084 19.8945C70.4887 20.2326 69.8195 20.4188 69.1035 20.46C69.0013 20.4658 68.898 20.4687 68.7939 20.4688C68.6938 20.4695 68.5938 20.4666 68.4941 20.4609C67.7981 20.4216 67.1175 20.2288 66.5029 19.8945C65.8187 19.5185 65.2517 18.9606 64.8652 18.2822C64.4634 17.5906 64.2578 16.7837 64.2578 15.8877C64.2579 14.9919 64.4636 14.1842 64.8652 13.4941C65.2684 12.8041 65.8143 12.2579 66.5029 11.8799C67.0982 11.543 67.769 11.3559 68.4844 11.3145C68.5866 11.3085 68.6899 11.3057 68.7939 11.3057C68.8938 11.3049 68.9934 11.3079 69.0928 11.3135ZM98.3965 18.0439C98.5998 18.0389 98.8011 18.0878 98.9795 18.1855C99.158 18.2834 99.3079 18.4273 99.4131 18.6016C99.5134 18.7731 99.5664 18.9683 99.5664 19.167C99.5664 19.3656 99.5133 19.5609 99.4131 19.7324C99.3154 19.9056 99.1686 20.0469 98.9922 20.1387C98.8091 20.2383 98.604 20.291 98.3955 20.291C98.187 20.291 97.982 20.2383 97.7988 20.1387L97.7998 20.1396C97.6274 20.0427 97.4826 19.9034 97.3799 19.7344C97.2796 19.5629 97.2266 19.3676 97.2266 19.1689C97.2266 18.9701 97.2795 18.7741 97.3799 18.6025C97.4773 18.4286 97.6233 18.287 97.7998 18.1943C97.9826 18.0944 98.1882 18.0422 98.3965 18.0439ZM79.4551 7.99023C80.3748 8.03955 81.2746 8.2882 82.0918 8.71973C83.0096 9.21261 83.7697 9.95486 84.2832 10.8613C84.8194 11.7881 85.0967 12.8846 85.0967 14.1445C85.0967 15.4044 84.8193 16.5104 84.2832 17.4287C83.7661 18.3275 83.0065 19.0635 82.0918 19.5518C81.1791 20.0389 80.1598 20.29 79.0596 20.29H74.7656V19.6328H75.1855C75.2703 19.6302 75.3537 19.6098 75.4307 19.5742C75.5076 19.5386 75.5769 19.4877 75.6338 19.4248C75.6962 19.3675 75.7469 19.2987 75.7822 19.2217C75.8176 19.1445 75.8373 19.0604 75.8398 18.9756V9.2959C75.8374 9.21093 75.8175 9.12713 75.7822 9.0498C75.7469 8.97252 75.6964 8.90316 75.6338 8.8457C75.491 8.7015 75.3465 8.63965 75.1855 8.63965H74.7656V7.98145H79.0596C79.1917 7.98033 79.3236 7.98318 79.4551 7.99023ZM91.1611 7.98145C91.9367 7.98145 92.6228 8.11755 93.208 8.37793C93.7582 8.61307 94.233 8.99535 94.5791 9.4834C94.9065 9.96294 95.0769 10.5327 95.0664 11.1133C95.0664 12.2375 94.4262 13.1099 93.1816 13.7314C93.9706 13.9128 94.6558 14.2308 95.0811 14.6152C95.1418 14.6701 95.1974 14.7268 95.2471 14.7842V14.7822L95.4141 14.9971C95.7792 15.5102 95.9604 16.1053 95.9678 16.7988C95.9677 17.5365 95.7692 18.1751 95.373 18.6973C94.9852 19.2181 94.4442 19.6136 93.7666 19.8838C93.0573 20.1596 92.302 20.2976 91.541 20.29H86.2656V19.6318H86.6895C86.7746 19.6293 86.8591 19.6098 86.9365 19.5742C87.0139 19.5386 87.0833 19.4877 87.1406 19.4248C87.2035 19.3678 87.2545 19.2988 87.29 19.2217C87.3256 19.1445 87.3452 19.0606 87.3477 18.9756V9.2959C87.3453 9.21078 87.3256 9.12719 87.29 9.0498C87.2545 8.97242 87.2037 8.90292 87.1406 8.8457C87.0325 8.73758 86.9244 8.67547 86.8086 8.65137L86.6895 8.63965H86.3018V7.98145H91.1611ZM49.1123 11.3164C49.8773 11.3735 50.5013 11.6302 50.9668 12.0811C51.5086 12.5949 51.7793 13.3171 51.7793 14.2383V19.0791C51.7769 19.1523 51.789 19.2256 51.8154 19.2939C51.8419 19.3622 51.8825 19.4241 51.9336 19.4766C51.9812 19.5259 52.0383 19.5644 52.1016 19.5908C52.1648 19.6172 52.2332 19.6306 52.3018 19.6299H52.6611V20.2871H49.3613V19.6299H49.7236C49.7962 19.6318 49.8688 19.6191 49.9365 19.5928C50.0043 19.5663 50.0669 19.5263 50.1191 19.4756C50.1701 19.4231 50.2099 19.3602 50.2363 19.292C50.2627 19.2239 50.2747 19.1511 50.2725 19.0781V14.4189C50.2725 13.8058 50.1204 13.2902 49.8223 12.8926C49.5255 12.495 49.046 12.2959 48.416 12.2959C47.8562 12.2959 47.3688 12.4416 46.9629 12.7383C46.5625 13.0337 46.2451 13.4303 46.0449 13.8867C45.8462 14.3556 45.7364 14.8343 45.7363 15.3115V19.0684C45.7339 19.1414 45.7471 19.214 45.7734 19.2822C45.7999 19.3506 45.8395 19.4134 45.8906 19.4658C45.9428 19.5169 46.0051 19.5565 46.0732 19.583C46.1413 19.6095 46.2141 19.6226 46.2871 19.6201H46.6484V20.2773H43.3467V19.6201H43.708C43.781 19.6224 43.8538 19.6095 43.9219 19.583C43.99 19.5565 44.0522 19.5168 44.1045 19.4658C44.1553 19.4134 44.1952 19.3512 44.2217 19.2832C44.2481 19.2152 44.2609 19.1423 44.2588 19.0693V13.3711C44.2587 13.1825 44.2036 13.047 44.1045 12.9561C44.0309 12.8888 43.9303 12.8453 43.8125 12.8281L43.6895 12.8203H43.3203V12.3691L44.7539 11.5469H45.3135L45.6475 12.8398C45.6475 12.8531 45.6514 12.8643 45.6592 12.8721C45.6669 12.8798 45.6785 12.8848 45.6924 12.8848C45.7062 12.8847 45.7194 12.8814 45.7305 12.877C45.7417 12.8724 45.7507 12.8659 45.7549 12.8574C46.4229 11.8916 47.3604 11.371 48.5371 11.3096C48.6157 11.3055 48.6956 11.3037 48.7764 11.3037C48.8912 11.3037 49.0032 11.3083 49.1123 11.3164ZM5.92871 8.01855C5.92348 8.02306 5.91999 8.03007 5.91992 8.03906L5.40234 19.5889V19.6064C5.45986 19.7009 5.59576 19.8405 5.71777 19.9561C5.83829 20.0702 5.94541 20.1607 5.94824 20.1631C5.95343 20.1586 6.05873 20.0687 6.17773 19.9561C6.29977 19.8405 6.43615 19.701 6.49512 19.6064V19.5889L5.97656 8.03906C5.97649 8.03014 5.97293 8.02306 5.96777 8.01855C5.9573 8.00941 5.93924 8.00949 5.92871 8.01855ZM98.3965 18.1855C98.2673 18.1798 98.1381 18.2012 98.0176 18.248C97.8971 18.2949 97.7877 18.3665 97.6963 18.458C97.605 18.5495 97.533 18.6588 97.4863 18.7793C97.4396 18.9 97.4188 19.0299 97.4248 19.1592C97.4249 19.3438 97.4697 19.512 97.5508 19.6631C97.6306 19.8127 97.7468 19.9271 97.8965 20.0068C98.0503 20.0887 98.2222 20.1309 98.3965 20.1299C98.5712 20.1362 98.7447 20.0937 98.8965 20.0068C99.0406 19.9252 99.1604 19.8066 99.2432 19.6631C99.3263 19.5083 99.3695 19.3349 99.3691 19.1592C99.3697 18.9833 99.3264 18.8092 99.2432 18.6543C99.1655 18.5065 99.0446 18.3857 98.8965 18.3086C98.7428 18.2266 98.5707 18.1844 98.3965 18.1855ZM98.3965 18.5654C98.5305 18.5655 98.6283 18.593 98.708 18.6543C98.7878 18.7159 98.8242 18.7946 98.8242 18.9023C98.8255 18.942 98.8182 18.982 98.8027 19.0186C98.7873 19.0548 98.7646 19.0878 98.7354 19.1143C98.676 19.1756 98.5958 19.2135 98.5107 19.2207L98.6191 19.2549L98.8242 19.583C98.841 19.6096 98.8601 19.6182 98.8867 19.6182H98.9395L98.9492 19.626V19.7061L98.9395 19.7148H98.6641L98.6455 19.7061L98.3604 19.2305H98.29V19.5469C98.2901 19.5633 98.2955 19.5797 98.3076 19.5908C98.3258 19.6076 98.3348 19.6084 98.3516 19.6084H98.4043L98.4238 19.6182V19.6973L98.4043 19.7061H97.9326L97.916 19.6973V19.6182L97.9326 19.6094H97.9873C98.003 19.6084 98.0179 19.6016 98.0293 19.5908C98.0486 19.5742 98.0488 19.5648 98.0488 19.5469V18.7246C98.0484 18.7086 98.0423 18.6932 98.0312 18.6816C98.013 18.6634 98.0027 18.6631 97.9873 18.6631H97.9326L97.915 18.6543V18.5752L97.9326 18.5654H98.3965ZM36.917 12.2686C36.0983 12.3075 35.4303 12.6385 34.9355 13.2422C34.3993 13.889 34.1299 14.7849 34.1299 15.8867C34.1299 16.9912 34.3994 17.8883 34.9355 18.5322C35.4303 19.1373 36.0983 19.467 36.917 19.5059C36.9716 19.5085 37.027 19.5098 37.083 19.5098C37.139 19.5098 37.1944 19.5085 37.249 19.5059C38.0676 19.467 38.7357 19.1372 39.2305 18.5322C39.7666 17.8868 40.0352 16.9908 40.0352 15.8877C40.0351 14.7763 39.768 13.8889 39.2305 13.2422C38.7357 12.6372 38.0687 12.3074 37.249 12.2686C37.1944 12.266 37.139 12.2647 37.083 12.2646C37.0271 12.2646 36.9716 12.266 36.917 12.2686ZM68.7949 12.2646C67.8991 12.2647 67.1752 12.5983 66.6475 13.2422C66.11 13.889 65.8408 14.7766 65.8408 15.8867C65.8408 16.9911 66.11 17.8883 66.6475 18.5322C67.1422 19.1373 67.8094 19.467 68.6279 19.5059C68.6826 19.5085 68.738 19.5098 68.7939 19.5098C68.85 19.5098 68.9053 19.5085 68.96 19.5059C69.7796 19.467 70.4463 19.1372 70.9424 18.5322C71.4786 17.8868 71.748 16.9909 71.748 15.8877C71.748 14.7763 71.4691 13.8889 70.9414 13.2422C70.4136 12.5968 69.6895 12.2646 68.7949 12.2646ZM78.1113 8.9082C78.0267 8.911 77.9431 8.93124 77.8662 8.9668C77.7896 9.00229 77.7209 9.05276 77.6641 9.11523C77.5213 9.25943 77.458 9.40303 77.458 9.56543V18.6875C77.4602 18.7725 77.4795 18.8562 77.5146 18.9336C77.5498 19.011 77.5997 19.0811 77.6621 19.1387C77.7182 19.2023 77.7872 19.2534 77.8643 19.2891C77.9028 19.3069 77.9432 19.3206 77.9844 19.3301L78.1104 19.3457H78.9785C79.7652 19.3457 80.499 19.1563 81.1611 18.7783C81.8246 18.4003 82.3596 17.8161 82.7627 17.0322C83.1657 16.2497 83.3701 15.2779 83.3701 14.126C83.3701 12.9755 83.1657 12.0041 82.7627 11.2217C82.3596 10.4392 81.8232 9.85359 81.1611 9.47559C80.4967 9.09781 79.7438 8.90184 78.9795 8.9082H78.1113ZM88.9883 18.6973C88.9909 18.7821 89.0114 18.8653 89.0469 18.9424C89.0825 19.0196 89.1333 19.0893 89.1963 19.1465C89.3404 19.2891 89.4842 19.3521 89.6465 19.3438H91.4951C92.0827 19.3437 92.5864 19.218 92.9922 18.9746C93.3866 18.7523 93.7093 18.4207 93.9209 18.0205C94.1199 17.6369 94.2251 17.2115 94.2275 16.7793C94.2275 16.0597 93.9934 15.4738 93.5244 15.0244C93.114 14.6301 92.5449 14.4093 91.8164 14.3604C91.7126 14.3534 91.6055 14.3496 91.4951 14.3496H88.9883V18.6973ZM98.3604 18.6631C98.3446 18.6639 98.3288 18.6707 98.3174 18.6816C98.2983 18.6982 98.2979 18.7066 98.2979 18.7246V19.1221H98.3682L98.3701 19.124C98.4413 19.1239 98.5027 19.1053 98.5391 19.0605C98.5801 19.0144 98.6021 18.9543 98.6006 18.8926C98.6032 18.8321 98.5848 18.7725 98.5479 18.7246C98.5217 18.6922 98.4842 18.6742 98.4414 18.667L98.3965 18.6631H98.3604ZM58.0703 12.2793C57.5589 12.326 57.0763 12.5469 56.7051 12.9082C56.2529 13.3324 56.0283 13.9547 56.0283 14.7471C56.0284 15.5394 56.2543 16.1612 56.7051 16.584C57.0995 16.955 57.5561 17.1669 58.0674 17.2139C58.1402 17.2206 58.2141 17.2236 58.2891 17.2236C58.3363 17.2232 58.3837 17.2211 58.4307 17.2178C58.7596 17.1946 59.0809 17.1023 59.3721 16.9453C59.7248 16.7521 60.0172 16.4647 60.2188 16.1162C60.4441 15.7551 60.5517 15.2958 60.5518 14.7471C60.5518 14.2068 60.4343 13.7475 60.2188 13.3779C59.9934 13.0084 59.7149 12.7294 59.3721 12.5488C59.0719 12.3834 58.7585 12.2941 58.4316 12.2744C58.385 12.2716 58.3382 12.2705 58.291 12.2705C58.2171 12.27 58.1433 12.2726 58.0703 12.2793ZM89.6562 8.9082C89.5709 8.91082 89.4868 8.93026 89.4092 8.96582C89.3316 9.0014 89.2618 9.05229 89.2041 9.11523C89.1404 9.17172 89.0894 9.24106 89.0537 9.31836C89.0181 9.39559 88.9987 9.47943 88.9971 9.56445V13.4248H91.0996C91.8374 13.4248 92.396 13.2185 92.7656 12.8125C93.1352 12.3981 93.3262 11.8492 93.3262 11.166C93.3261 10.5012 93.1266 9.96079 92.7305 9.53809C92.3837 9.17678 91.8559 8.96507 91.1562 8.91797C91.0565 8.91126 90.9533 8.90821 90.8467 8.9082H89.6562Z" fill="var(--fill-0, white)" fill-opacity="0.8"/>
</g>
<defs>
<clipPath id="clip0_0_41">
<rect width="100" height="28" fill="white"/>
</clipPath>
</defs>
</svg>
