<svg preserveAspectRatio="none" width="100%" height="100%" overflow="visible" style="display: block;" viewBox="0 0 90.7929 66.8465" fill="none" xmlns="http://www.w3.org/2000/svg">
<g id="&#226;&#128;&#156;" filter="url(#filter0_d_0_183)">
<path d="M25.866 28.9133C30.4298 28.9133 34.054 30.2556 36.7386 32.9402C39.5127 35.5353 40.8998 39.07 40.8998 43.5443C40.8998 47.9292 39.4232 51.5981 36.4702 54.5512C33.5171 57.4147 29.2665 58.8465 23.7183 58.8465C17.9912 58.8465 13.6064 56.9226 10.5638 53.0747C7.52127 49.1372 6 44.1707 6 38.1751C6 32.448 7.3423 27.3473 10.0269 22.8729C12.7115 18.3091 16.1567 14.4612 20.3626 11.3292C24.602 8.14958 28.9287 5.71095 33.3425 4.01329C33.4407 3.97549 33.5512 4.0209 33.5951 4.11661L36.3796 10.1919C36.4284 10.2983 36.3758 10.4236 36.266 10.4641C33.1182 11.625 30.0989 13.3004 27.2083 15.4903C24.3447 17.7275 21.9734 20.3226 20.0941 23.2756C18.4824 25.8544 17.5601 28.5058 17.3272 31.2298C17.309 31.4432 17.6713 31.5687 17.8258 31.4202C18.3229 30.9425 19.079 30.4648 20.0941 29.9871C21.7049 29.2712 23.6289 28.9133 25.866 28.9133ZM69.7592 28.9133C74.323 28.9133 77.9472 30.2556 80.6318 32.9402C83.4059 35.5353 84.7929 39.07 84.7929 43.5443C84.7929 47.9292 83.3164 51.5981 80.3633 54.5512C77.4103 57.4147 73.1597 58.8465 67.6115 58.8465C61.8844 58.8465 57.4995 56.9226 54.457 53.0747C51.4144 49.1372 49.8932 44.1707 49.8932 38.1751C49.8932 32.448 51.2355 27.3473 53.92 22.8729C56.6046 18.3091 60.0499 14.4612 64.2558 11.3292C68.4952 8.14958 72.8218 5.71095 77.2356 4.01329C77.3339 3.97549 77.4444 4.0209 77.4882 4.11661L80.2728 10.1919C80.3215 10.2983 80.2689 10.4236 80.1592 10.4641C77.0113 11.625 73.9921 13.3004 71.1015 15.4903C68.2379 17.7275 65.8665 20.3226 63.9873 23.2756C62.3755 25.8544 61.4532 28.5058 61.2204 31.2298C61.2021 31.4432 61.5644 31.5687 61.7189 31.4202C62.2161 30.9425 62.9722 30.4648 63.9873 29.9871C65.598 29.2712 67.522 28.9133 69.7592 28.9133Z" fill="url(#paint0_linear_0_183)" fill-opacity="0.5" shape-rendering="crispEdges"/>
<path d="M25.866 28.9133C30.4298 28.9133 34.054 30.2556 36.7386 32.9402C39.5127 35.5353 40.8998 39.07 40.8998 43.5443C40.8998 47.9292 39.4232 51.5981 36.4702 54.5512C33.5171 57.4147 29.2665 58.8465 23.7183 58.8465C17.9912 58.8465 13.6064 56.9226 10.5638 53.0747C7.52127 49.1372 6 44.1707 6 38.1751C6 32.448 7.3423 27.3473 10.0269 22.8729C12.7115 18.3091 16.1567 14.4612 20.3626 11.3292C24.602 8.14958 28.9287 5.71095 33.3425 4.01329C33.4407 3.97549 33.5512 4.0209 33.5951 4.11661L36.3796 10.1919C36.4284 10.2983 36.3758 10.4236 36.266 10.4641C33.1182 11.625 30.0989 13.3004 27.2083 15.4903C24.3447 17.7275 21.9734 20.3226 20.0941 23.2756C18.4824 25.8544 17.5601 28.5058 17.3272 31.2298C17.309 31.4432 17.6713 31.5687 17.8258 31.4202C18.3229 30.9425 19.079 30.4648 20.0941 29.9871C21.7049 29.2712 23.6289 28.9133 25.866 28.9133ZM69.7592 28.9133C74.323 28.9133 77.9472 30.2556 80.6318 32.9402C83.4059 35.5353 84.7929 39.07 84.7929 43.5443C84.7929 47.9292 83.3164 51.5981 80.3633 54.5512C77.4103 57.4147 73.1597 58.8465 67.6115 58.8465C61.8844 58.8465 57.4995 56.9226 54.457 53.0747C51.4144 49.1372 49.8932 44.1707 49.8932 38.1751C49.8932 32.448 51.2355 27.3473 53.92 22.8729C56.6046 18.3091 60.0499 14.4612 64.2558 11.3292C68.4952 8.14958 72.8218 5.71095 77.2356 4.01329C77.3339 3.97549 77.4444 4.0209 77.4882 4.11661L80.2728 10.1919C80.3215 10.2983 80.2689 10.4236 80.1592 10.4641C77.0113 11.625 73.9921 13.3004 71.1015 15.4903C68.2379 17.7275 65.8665 20.3226 63.9873 23.2756C62.3755 25.8544 61.4532 28.5058 61.2204 31.2298C61.2021 31.4432 61.5644 31.5687 61.7189 31.4202C62.2161 30.9425 62.9722 30.4648 63.9873 29.9871C65.598 29.2712 67.522 28.9133 69.7592 28.9133Z" fill="url(#paint1_radial_0_183)" fill-opacity="0.5" shape-rendering="crispEdges"/>
<path d="M35.791 10.1086C32.7025 11.2826 29.7407 12.9448 26.9062 15.092L26.9004 15.0959C23.9937 17.3668 21.5828 20.0041 19.6719 23.0071L19.6699 23.011C18.1241 25.4844 17.1914 28.0356 16.8828 30.6614L16.8291 31.1868C16.7916 31.6251 17.142 31.8573 17.3398 31.9299C17.5449 32.0051 17.9034 32.0384 18.1719 31.7805C18.6129 31.3567 19.3141 30.9068 20.3066 30.4397L20.3057 30.4387C21.836 29.7604 23.6851 29.4133 25.8662 29.4133C30.326 29.4134 33.8125 30.7219 36.3848 33.2942L36.3906 33.3L36.3975 33.3049C39.0524 35.7886 40.3994 39.1815 40.3994 43.5442C40.3994 47.8038 38.9704 51.3433 36.1162 54.1975C33.2854 56.9391 29.1795 58.3468 23.7188 58.3469C18.2908 58.3469 14.1526 56.5871 11.2344 53.1067L10.9561 52.7649C7.99633 48.9325 6.5 44.0812 6.5 38.175C6.50001 32.5294 7.82258 27.5192 10.4561 23.1301L10.458 23.1262C13.1091 18.6194 16.5094 14.8215 20.6611 11.7297L20.6621 11.7288C24.7844 8.63707 28.9839 6.25771 33.2588 4.58324L35.791 10.1086ZM79.6846 10.1086C76.5959 11.2826 73.6343 12.9447 70.7998 15.092L70.7939 15.0959C67.8873 17.3668 65.4764 20.0042 63.5654 23.0071L63.5635 23.011C62.0176 25.4845 61.084 28.0355 60.7754 30.6614L60.7227 31.1868C60.6852 31.6249 61.0346 31.8572 61.2324 31.9299C61.4374 32.0051 61.7969 32.0386 62.0654 31.7805C62.5065 31.3568 63.2069 30.9057 64.1992 30.4387C65.7294 29.7606 67.578 29.4134 69.7588 29.4133C74.2187 29.4133 77.706 30.7218 80.2783 33.2942L80.2842 33.3L80.29 33.3049C82.945 35.7886 84.2929 39.1815 84.293 43.5442C84.293 47.8038 82.8639 51.3433 80.0098 54.1975C77.1789 56.9393 73.0724 58.3469 67.6113 58.3469C62.1835 58.3469 58.0461 56.5869 55.1279 53.1067L54.8496 52.7649C51.8898 48.9325 50.3936 44.0813 50.3936 38.175C50.3936 32.5294 51.7152 27.5192 54.3486 23.1301L54.3506 23.1262C57.0017 18.6193 60.4029 14.8215 64.5547 11.7297L64.5557 11.7288C68.678 8.63704 72.8774 6.25769 77.1523 4.58324L79.6846 10.1086Z" stroke="url(#paint2_linear_0_183)" style="mix-blend-mode:overlay" shape-rendering="crispEdges"/>
</g>
<defs>
<filter id="filter0_d_0_183" x="0" y="7.07805e-08" width="90.7929" height="66.8465" filterUnits="userSpaceOnUse" color-interpolation-filters="sRGB">
<feFlood flood-opacity="0" result="BackgroundImageFix"/>
<feColorMatrix in="SourceAlpha" type="matrix" values="0 0 0 0 0 0 0 0 0 0 0 0 0 0 0 0 0 0 127 0" result="hardAlpha"/>
<feOffset dy="2"/>
<feGaussianBlur stdDeviation="3"/>
<feComposite in2="hardAlpha" operator="out"/>
<feColorMatrix type="matrix" values="0 0 0 0 0 0 0 0 0 0 0 0 0 0 0 0 0 0 0.3 0"/>
<feBlend mode="normal" in2="BackgroundImageFix" result="effect1_dropShadow_0_183"/>
<feBlend mode="normal" in="SourceGraphic" in2="effect1_dropShadow_0_183" result="shape"/>
</filter>
<linearGradient id="paint0_linear_0_183" x1="45" y1="-14.5535" x2="64.5" y2="54.4465" gradientUnits="userSpaceOnUse">
<stop stop-color="#34458A"/>
<stop offset="1" stop-color="#0F101E"/>
</linearGradient>
<radialGradient id="paint1_radial_0_183" cx="0" cy="0" r="1" gradientUnits="userSpaceOnUse" gradientTransform="translate(35 3.94653) rotate(78.8262) scale(41.2826 59.2491)">
<stop stop-color="#4B73EC"/>
<stop offset="1" stop-color="#4B73EC" stop-opacity="0"/>
</radialGradient>
<linearGradient id="paint2_linear_0_183" x1="45.3965" y1="3.94653" x2="53.5" y2="37.9465" gradientUnits="userSpaceOnUse">
<stop stop-color="white"/>
<stop offset="1" stop-color="white" stop-opacity="0"/>
</linearGradient>
</defs>
</svg>
