<svg preserveAspectRatio="none" width="100%" height="100%" overflow="visible" style="display: block;" viewBox="0 0 78 28" fill="none" xmlns="http://www.w3.org/2000/svg">
<g id="siemens 1">
<path id="Union" d="M5.81152 7.48535C6.28468 7.48535 6.81729 7.52639 7.4209 7.60254C8.01828 7.68372 8.59735 7.78365 9.15332 7.90625V10.1523C7.98871 9.71339 6.95299 9.49125 6.0459 9.49121C5.50674 9.49121 5.07979 9.59023 4.75781 9.78223C4.43637 9.97655 4.27148 10.2154 4.27148 10.4971C4.27151 10.8722 4.64022 11.2045 5.37207 11.5029L7.48633 12.5312C9.18836 13.3454 10.038 14.426 10.0381 15.7832C10.0381 16.912 9.58729 17.8121 8.68652 18.4785C7.77876 19.1516 6.57144 19.4854 5.05664 19.4854C4.35948 19.4853 3.73225 19.4559 3.17676 19.3926C2.62076 19.3332 1.9887 19.21 1.27539 19.0342V16.6836L1.75879 16.8389C2.87331 17.1753 3.89532 17.3447 4.82129 17.3447C6.09219 17.3447 6.72454 16.9768 6.72461 16.2344C6.72461 15.8649 6.46683 15.5665 5.94629 15.333L3.59863 14.333C2.72615 13.9415 2.08195 13.4675 1.66699 12.9053C1.24486 12.3386 1.03906 11.6888 1.03906 10.9463C1.03918 9.90671 1.47373 9.07019 2.34473 8.43359C3.21103 7.80192 4.37123 7.48536 5.81152 7.48535ZM72.3066 7.48535C72.7748 7.48535 73.3146 7.52638 73.9121 7.60254C74.5139 7.68372 75.0933 7.78365 75.6504 7.90625V10.1523C75.5048 10.0975 75.3613 10.0461 75.2197 9.99805C74.3702 9.70959 73.5927 9.5435 72.8877 9.50195C72.7701 9.49502 72.6546 9.49121 72.541 9.49121C72.4739 9.49121 72.4085 9.49301 72.3447 9.49609C71.8984 9.51767 71.5356 9.61427 71.2539 9.78223C70.9319 9.97655 70.7666 10.2154 70.7666 10.4971C70.7666 10.8722 71.1305 11.2045 71.8623 11.5029L73.9766 12.5312C75.6854 13.3454 76.5341 14.426 76.5342 15.7832C76.5342 16.912 76.0843 17.8121 75.1768 18.4785C74.3321 19.1095 73.2129 19.4423 71.832 19.4814C71.7399 19.4841 71.6462 19.4854 71.5518 19.4854C71.3778 19.4853 71.2082 19.4833 71.043 19.4795C70.5469 19.4682 70.0905 19.44 69.6738 19.3926C69.1178 19.3332 68.4789 19.21 67.7705 19.0342V16.6836L68.252 16.8389C69.2046 17.1274 70.0921 17.2925 70.9131 17.334C71.0499 17.3409 71.1852 17.3447 71.3184 17.3447C71.3977 17.3447 71.4745 17.3437 71.5488 17.3408C72.6657 17.2977 73.2216 16.9305 73.2217 16.2344C73.2217 15.8649 72.9627 15.5665 72.4365 15.333L70.0889 14.333C69.2226 13.9415 68.5789 13.4675 68.1572 12.9053C67.7428 12.3386 67.5312 11.6888 67.5312 10.9463C67.5314 9.90656 67.9697 9.07023 68.8359 8.43359C69.7089 7.80206 70.8666 7.48539 72.3066 7.48535ZM35.1973 14.7842L38.1992 7.69629H42.1924V19.2744H38.9775V11.6377L35.6426 19.3809H33.6582L30.4502 11.6377V19.2744H28.125V7.69629H32.3281L35.1973 14.7842ZM15.0215 19.2744H11.5781V7.69629H15.0215V19.2744ZM26.1182 9.83594H21.002V12.4033H25.4395V14.333H21.002V17.0283H26.2217V19.2744H17.6875V7.69629H26.1182V9.83594ZM53.2812 9.83594H48.1934V12.4033H52.6309V14.333H48.1934V17.0283H53.3857V19.2744H44.8516V7.69629H53.2812V9.83594ZM59.04 7.69629L63.0332 14.9951V7.69629H65.3555V19.2744H61.7031L57.6045 11.8486V19.2744H55.2812V7.69629H59.04Z" fill="var(--fill-0, white)" fill-opacity="0.8"/>
</g>
</svg>
