<svg width="65" height="17" overflow="visible" style="display: block;" viewBox="0 0 64.8309 16.6862" fill="none" xmlns="http://www.w3.org/2000/svg">
<g id="unified">
<g id="Path 1">
</g>
<path id="Path 2" d="M7.34492 16.6862C7.49728 16.6827 7.64618 16.6402 7.77746 16.5628L14.1989 12.8581C14.3304 12.7884 14.438 12.6808 14.5077 12.5493L7.2832 8.35059V16.6862H7.34492Z" fill="var(--fill-0, white)" fill-opacity="0.4"/>
<path id="Path 3" d="M14.5714 4.15233C14.5017 4.02085 14.3941 3.9133 14.2626 3.84357L7.84113 0.138908C7.7037 0.0482974 7.54269 0 7.37807 0C7.21345 0 7.05245 0.0482974 6.91501 0.138908L0.49353 3.84357C0.334086 3.89349 0.200887 4.0045 0.123047 4.15233L7.34721 8.35108L14.5714 4.15233Z" fill="var(--fill-0, white)" fill-opacity="0.95"/>
<path id="Path 4" d="M14.5714 4.15234L7.34721 8.35109L14.5714 12.5497C14.6485 12.3962 14.6907 12.2275 14.6948 12.0558V4.64627C14.6907 4.47453 14.6485 4.30585 14.5714 4.15234ZM0.123047 12.5497C0.192767 12.6812 0.300322 12.7887 0.43181 12.8584L6.85329 16.5628C6.98789 16.6321 7.1349 16.6741 7.28583 16.6862V8.35109L0.123047 12.5497Z" fill="var(--fill-0, white)" fill-opacity="0.75"/>
<path id="Path 5" d="M0.123439 4.15234C0.0463247 4.30585 0.00416881 4.47453 0 4.64627L0 12.1175C0.00416881 12.2892 0.0463247 12.4579 0.123439 12.6114L7.3476 8.41281L0.123439 4.15234Z" fill="var(--fill-0, white)" fill-opacity="0.9"/>
<g id="Path 6">
</g>
<path id="Path 7" d="M64.5831 2.66883C64.4166 2.5103 64.1956 2.42188 63.9657 2.42188C63.7358 2.42188 63.5147 2.5103 63.3482 2.66883C63.2647 2.74778 63.1994 2.84394 63.1567 2.95066C63.114 3.05738 63.0951 3.17209 63.1012 3.28686V6.68226C62.4415 6.24568 61.6693 6.00974 60.8783 6.00301C59.7668 6.00301 58.8407 6.43555 58.038 7.2379C57.6555 7.61648 57.3542 8.06908 57.1525 8.56803C56.9508 9.06699 56.8529 9.60182 56.8649 10.1399C56.8529 10.6779 56.9508 11.2128 57.1525 11.7117C57.3542 12.2107 57.6555 12.6633 58.038 13.0419C58.8407 13.8445 59.7668 14.2767 60.8783 14.2767C61.6693 14.27 62.4415 14.0341 63.1012 13.5975C63.1426 13.7934 63.252 13.9684 63.4099 14.0914C63.5724 14.2074 63.766 14.2719 63.9656 14.2766C64.08 14.2795 64.1938 14.259 64.3 14.2166C64.4063 14.1741 64.5028 14.1105 64.5837 14.0296C64.6646 13.9487 64.7282 13.8522 64.7707 13.7459C64.8131 13.6397 64.8335 13.5259 64.8307 13.4115V3.34791C64.8143 3.10264 64.7284 2.8671 64.5831 2.66883ZM62.3604 11.8071C62.1642 12.0212 61.9257 12.1921 61.66 12.309C61.3942 12.4259 61.1071 12.4863 60.8167 12.4863C60.5264 12.4863 60.2392 12.4259 59.9735 12.309C59.7078 12.1921 59.4692 12.0212 59.2731 11.8071C59.0584 11.5984 58.8877 11.3489 58.7711 11.0732C58.6544 10.7974 58.5941 10.5011 58.5938 10.2018C58.5829 9.90632 58.632 9.61174 58.7381 9.33581C58.8443 9.05988 59.0052 8.80834 59.2114 8.59639C59.4075 8.38235 59.646 8.21143 59.9118 8.09451C60.1775 7.97759 60.4647 7.91721 60.755 7.91721C61.0453 7.91721 61.3325 7.97759 61.5982 8.09451C61.864 8.21143 62.1025 8.38235 62.2987 8.59639C62.5048 8.80834 62.6658 9.05988 62.7719 9.33581C62.878 9.61174 62.9271 9.90632 62.9162 10.2018C63.0395 10.7574 62.7926 11.313 62.3604 11.8071ZM29.944 6.00301C29.3332 6.00567 28.735 6.17681 28.2152 6.4976C28.1412 6.34821 28.0266 6.22264 27.8846 6.1352C27.7426 6.04775 27.579 6.00195 27.4122 6.00301C27.2978 6.00013 27.1841 6.02054 27.0778 6.063C26.9715 6.10545 26.875 6.16907 26.7941 6.24998C26.7132 6.33089 26.6496 6.4274 26.6071 6.53366C26.5647 6.63991 26.5443 6.75369 26.5472 6.86808V13.3506C26.5488 13.5215 26.6006 13.6882 26.6961 13.83C26.7916 13.9718 26.9267 14.0824 27.0845 14.1481C27.2422 14.2139 27.4159 14.2319 27.5838 14.1999C27.7517 14.1679 27.9065 14.0873 28.0291 13.9681C28.1205 13.8922 28.1952 13.7981 28.2484 13.6918C28.3015 13.5855 28.332 13.4693 28.3378 13.3506V9.39891C28.343 8.95837 28.5203 8.53732 28.8318 8.22578C29.1433 7.91425 29.5644 7.73696 30.0049 7.73182C30.224 7.72832 30.4415 7.77042 30.6434 7.85545C30.8454 7.94048 31.0275 8.06658 31.1781 8.22574C31.4896 8.53729 31.6669 8.95836 31.672 9.39891V13.3506C31.6675 13.467 31.6864 13.5831 31.7278 13.6919C31.7692 13.8008 31.8321 13.9002 31.9129 13.9841C31.9936 14.0681 32.0904 14.1349 32.1976 14.1805C32.3047 14.2261 32.42 14.2496 32.5364 14.2496C32.6529 14.2496 32.7681 14.2261 32.8753 14.1805C32.9825 14.1349 33.0793 14.0681 33.16 13.9841C33.2407 13.9002 33.3037 13.8008 33.345 13.6919C33.3864 13.5831 33.4054 13.467 33.4008 13.3506V9.39891C33.4102 8.95122 33.3274 8.50639 33.1575 8.0921C32.9875 7.67782 32.7341 7.30296 32.413 6.99085C31.7422 6.36443 30.861 6.012 29.9432 6.00301H29.944ZM35.8716 6.06473C35.7564 6.05282 35.64 6.06909 35.5324 6.11212C35.4248 6.15515 35.3293 6.22367 35.2541 6.31177C35.1651 6.39961 35.0968 6.50611 35.0541 6.62359C35.0114 6.74106 34.9953 6.86657 35.007 6.99102V13.4125C35.0025 13.5289 35.0214 13.645 35.0628 13.7538C35.1042 13.8627 35.1671 13.9621 35.2479 14.046C35.3286 14.13 35.4254 14.1967 35.5326 14.2424C35.6397 14.288 35.755 14.3115 35.8714 14.3115C35.9879 14.3115 36.1032 14.288 36.2103 14.2424C36.3175 14.1967 36.4143 14.13 36.495 14.046C36.5757 13.9621 36.6387 13.8627 36.6801 13.7538C36.7214 13.645 36.7404 13.5289 36.7358 13.4125V6.92913C36.7422 6.80515 36.7236 6.68116 36.6811 6.56449C36.6387 6.44782 36.5733 6.34085 36.4888 6.24989C36.312 6.11605 36.0929 6.05043 35.8716 6.06506V6.06473ZM24.2015 6.00301C24.0871 6.00013 23.9733 6.02054 23.8671 6.063C23.7608 6.10545 23.6643 6.16907 23.5834 6.24998C23.5025 6.33089 23.4389 6.4274 23.3964 6.53366C23.3539 6.63991 23.3335 6.75369 23.3364 6.86808V10.8191C23.3399 11.0382 23.2978 11.2557 23.2128 11.4576C23.1278 11.6596 23.0017 11.8417 22.8425 11.9923C22.6797 12.1522 22.4869 12.2783 22.275 12.3631C22.0632 12.448 21.8366 12.4899 21.6084 12.4865C21.3893 12.49 21.1719 12.4479 20.9699 12.3629C20.768 12.2779 20.5859 12.1518 20.4353 11.9926C20.1237 11.6811 19.9465 11.26 19.9413 10.8195V6.86742C19.9442 6.75303 19.9238 6.63925 19.8814 6.53299C19.8389 6.42674 19.7753 6.33022 19.6944 6.24931C19.6135 6.1684 19.517 6.10479 19.4107 6.06233C19.3044 6.01988 19.1907 5.99947 19.0763 6.00235C18.9619 5.99947 18.8481 6.01988 18.7419 6.06233C18.6356 6.10479 18.5391 6.1684 18.4582 6.24931C18.3773 6.33022 18.3136 6.42674 18.2712 6.53299C18.2287 6.63925 18.2083 6.75303 18.2112 6.86742V10.8191C18.2082 11.266 18.294 11.7091 18.4637 12.1226C18.6333 12.5361 18.8835 12.9117 19.1995 13.2277C19.5156 13.5436 19.8913 13.7937 20.3049 13.9632C20.7184 14.1327 21.1615 14.2184 21.6084 14.2152C22.0561 14.2246 22.501 14.1418 22.9152 13.9718C23.3295 13.8019 23.7044 13.5484 24.0165 13.2273C24.346 12.9184 24.609 12.5454 24.7896 12.1314C24.9701 11.7173 25.0644 11.2708 25.0666 10.8191V6.86742C25.0726 6.75273 25.0536 6.63811 25.0109 6.53149C24.9683 6.42486 24.903 6.32878 24.8195 6.24989C24.644 6.10558 24.4281 6.01932 24.2015 6.00301ZM45.8116 6.06473C45.6963 6.05282 45.5799 6.06909 45.4724 6.11212C45.3648 6.15515 45.2693 6.22367 45.1941 6.31177C45.1051 6.39961 45.0368 6.50611 44.9941 6.62359C44.9514 6.74106 44.9353 6.86657 44.947 6.99102V13.4125C44.9425 13.5289 44.9614 13.645 45.0028 13.7538C45.0442 13.8627 45.1071 13.9621 45.1878 14.046C45.2686 14.13 45.3654 14.1967 45.4726 14.2424C45.5797 14.288 45.695 14.3115 45.8114 14.3115C45.9279 14.3115 46.0431 14.288 46.1503 14.2424C46.2574 14.1967 46.3543 14.13 46.435 14.046C46.5157 13.9621 46.5787 13.8627 46.62 13.7538C46.6614 13.645 46.6804 13.5289 46.6758 13.4125V6.92913C46.6821 6.80515 46.6635 6.68116 46.6211 6.56449C46.5787 6.44782 46.5133 6.34085 46.4288 6.24989C46.2519 6.11585 46.0327 6.05011 45.8113 6.06473H45.8116ZM42.9723 4.2742C43.0963 4.28052 43.2203 4.26191 43.337 4.21948C43.4536 4.17704 43.5606 4.11165 43.6516 4.02716C43.735 3.94825 43.8003 3.85216 43.8429 3.74554C43.8855 3.63891 43.9045 3.5243 43.8985 3.40963C43.9045 3.29495 43.8855 3.18033 43.8428 3.0737C43.8002 2.96708 43.7349 2.871 43.6514 2.7921C43.444 2.62003 43.1796 2.53189 42.9104 2.54506C39.6997 2.54506 39.8849 6.12628 39.8849 6.12628H38.8351C38.7112 6.11997 38.5872 6.13858 38.4705 6.18101C38.3538 6.22344 38.2468 6.28884 38.1559 6.37333C38.0724 6.45222 38.0071 6.5483 37.9645 6.65493C37.9218 6.76155 37.9028 6.87617 37.9088 6.99085C37.8969 7.1061 37.9132 7.22251 37.9562 7.33008C37.9993 7.43764 38.0678 7.53315 38.1559 7.60838C38.2437 7.69733 38.3502 7.76564 38.4677 7.80836C38.5852 7.85109 38.7107 7.86717 38.8351 7.85543H39.8849V13.3506C39.873 13.4659 39.8892 13.5823 39.9323 13.6898C39.9753 13.7974 40.0438 13.8929 40.1319 13.9681C40.2108 14.0516 40.3069 14.1169 40.4135 14.1596C40.5201 14.2022 40.6348 14.2212 40.7494 14.2152C40.8647 14.2271 40.9811 14.2108 41.0887 14.1678C41.1962 14.1248 41.2917 14.0562 41.367 13.9681C41.4504 13.8892 41.5157 13.7932 41.5584 13.6865C41.601 13.5799 41.62 13.4653 41.614 13.3506V7.85543H42.9106C43.0259 7.86733 43.1423 7.85107 43.2498 7.80804C43.3574 7.765 43.4529 7.69649 43.5281 7.60838C43.6116 7.52949 43.6769 7.4334 43.7196 7.32678C43.7622 7.22016 43.7812 7.10554 43.7752 6.99085C43.7781 6.87647 43.7577 6.76269 43.7152 6.65643C43.6727 6.55018 43.6091 6.45366 43.5282 6.37275C43.4473 6.29184 43.3508 6.22823 43.2445 6.18577C43.1383 6.14332 43.0245 6.12291 42.9101 6.12578H41.6135C41.6752 6.06407 41.5518 4.27337 42.9718 4.27337L42.9723 4.2742ZM54.7038 7.11446C53.9629 6.37349 53.0368 6.06473 51.9256 6.06473C51.401 6.05893 50.8813 6.16622 50.4019 6.37932C49.9225 6.59241 49.4946 6.9063 49.1474 7.29962C48.7649 7.6782 48.4636 8.1308 48.2619 8.62975C48.0602 9.12871 47.9623 9.66354 47.9743 10.2016C47.9788 11.2836 48.3988 12.3224 49.1474 13.1036C49.5192 13.4993 49.9691 13.8134 50.4687 14.0259C50.9682 14.2385 51.5065 14.3449 52.0494 14.3385C52.9009 14.3495 53.7373 14.1136 54.4575 13.6592C54.6391 13.5357 54.805 13.3904 54.9514 13.2267L55.0131 13.165C55.0129 13.1568 55.0144 13.1487 55.0175 13.1412C55.0205 13.1336 55.0251 13.1267 55.0308 13.121C55.0366 13.1152 55.0435 13.1107 55.051 13.1076C55.0586 13.1046 55.0667 13.1031 55.0748 13.1032V13.0415C55.1251 12.9249 55.1463 12.7977 55.1365 12.671C55.1527 12.5641 55.1309 12.4548 55.0748 12.3623C54.9788 12.1916 54.8256 12.0604 54.6423 11.9918C54.4835 11.9295 54.3071 11.9295 54.1484 11.9918C54.0867 11.9918 54.0249 12.0535 53.9632 12.0535C53.8398 12.1152 53.7781 12.1769 53.6545 12.2387C53.1605 12.6092 52.6047 12.7326 51.9256 12.6712C51.6316 12.6587 51.3431 12.5866 51.0777 12.4592C50.8124 12.3318 50.5757 12.1519 50.382 11.9302C50.1004 11.6164 49.9084 11.2324 49.8263 10.8188H55.0747C55.1899 10.8307 55.3063 10.8144 55.4139 10.7714C55.5215 10.7284 55.617 10.6599 55.6922 10.5717C55.7742 10.5052 55.8394 10.4201 55.8823 10.3235C55.9253 10.227 55.9448 10.1216 55.9392 10.0161V9.95438C55.9205 8.88134 55.4763 7.85967 54.7043 7.11413L54.7038 7.11446ZM49.7643 9.33719C49.826 8.90466 50.0731 8.53451 50.4435 8.16402C50.814 7.79354 51.3086 7.60838 51.9872 7.5465C52.5976 7.553 53.1869 7.77127 53.6543 8.16402C54.0192 8.45345 54.297 8.83809 54.457 9.27547H49.7643V9.33719Z" fill="var(--fill-0, white)" fill-opacity="0.9"/>
</g>
</svg>
