<svg preserveAspectRatio="none" width="100%" height="100%" overflow="visible" style="display: block;" viewBox="0 0 76 28" fill="none" xmlns="http://www.w3.org/2000/svg">
<g id="unity 1">
<path id="Union" d="M22.9531 6.81641V18.4785L19.0801 16.2422V11.6748C19.0857 11.5068 18.89 11.399 18.75 11.4844L14.0459 14.2002C13.9786 14.2388 13.9228 14.2943 13.8838 14.3613C13.8447 14.4284 13.8236 14.5044 13.8232 14.582V20.0127C13.8176 20.1765 14.0143 20.2881 14.1543 20.2041L18.1133 17.9199L21.9854 20.1543L11.8857 25.9854L1.78809 20.1543L5.66016 17.9199L9.61816 20.2041C9.76096 20.2937 9.95104 20.1761 9.94824 20.0137V14.584C9.94808 14.5066 9.9274 14.4303 9.88867 14.3633C9.8499 14.2963 9.79455 14.2399 9.72754 14.2012L5.02344 11.4854C4.88204 11.3958 4.68958 11.5134 4.69238 11.6758V16.2441L0.820312 18.4795V6.81738L10.9199 0.985352V5.45996L6.96387 7.74219C6.81687 7.82059 6.81967 8.0466 6.96387 8.125L11.666 10.8418C11.733 10.8811 11.81 10.9014 11.8877 10.9014C11.9652 10.9013 12.0415 10.881 12.1084 10.8418L16.8125 8.125C16.9594 8.04514 16.9539 7.82294 16.8125 7.74316L12.8545 5.45801V0.985352L22.9531 6.81641ZM63.8369 13.8887C64.1043 14.7187 64.3696 15.8481 64.375 15.8711H64.4092C64.4134 15.8506 64.6467 14.721 64.9131 13.8887L66.0361 10.2266H68.7754L65.8008 18.9453C65.1134 20.9613 64.29 21.667 62.5596 21.667H60.7793V19.5342H61.7207C62.5269 19.5342 62.8465 19.2133 62.8467 18.627C62.8467 18.2602 62.679 17.7543 62.3262 16.8457L59.7891 10.2266H62.6787L63.8369 13.8887ZM31.7402 14.6953C31.7403 15.8711 32.3454 16.661 33.8066 16.6611C35.0995 16.6611 35.757 15.9237 35.834 14.8613L35.8408 14.6465H35.8359V7.50586H38.8105V14.5928C38.8105 17.3662 37.1474 19.0449 33.8057 19.0449C30.4443 19.0449 28.7656 17.3998 28.7656 14.5928V7.50195H31.7402V14.6953ZM57.5186 10.2266H59.0801V12.4473H57.5186V15.9746C57.5186 16.6466 57.8877 16.8144 58.4756 16.8145C58.7104 16.8145 58.9789 16.7979 59.0801 16.7979V18.7969C58.8447 18.864 58.3252 18.9316 57.585 18.9316C55.9892 18.9316 54.8457 18.409 54.8457 16.5625V12.4473H53.7031V10.2266H54.8457V7.50488H57.5186V10.2266ZM45.5635 9.97461C47.4435 9.97461 48.5545 11.3188 48.5547 13.2324V18.8311H45.8145V13.791C45.8143 12.9393 45.4144 12.3408 44.6318 12.2695L44.4707 12.2627C44.4139 12.2627 44.3581 12.2657 44.3037 12.2715C43.4901 12.3584 42.9591 13.0833 42.959 14.0752V18.8271H40.2188V10.2266H42.8574V11.4033H42.9092C43.5475 10.4794 44.3709 9.97474 45.5635 9.97461ZM52.6934 18.8281H49.9531V10.2266H52.6914L52.6934 18.8281ZM72.6387 10.2256C73.07 10.2256 73.4919 10.3529 73.8516 10.5908C74.2113 10.8288 74.4934 11.1675 74.6621 11.5645C74.7768 11.8303 74.833 12.1157 74.833 12.418C74.833 12.7231 74.7755 13.0046 74.6621 13.2705C74.5513 13.5317 74.3914 13.7695 74.1914 13.9707C73.9886 14.1757 73.747 14.3381 73.4805 14.4482C73.2138 14.5584 72.9272 14.6145 72.6387 14.6123C72.3322 14.6122 72.052 14.5548 71.7861 14.4414C71.5204 14.3281 71.2884 14.1697 71.0869 13.9697C70.8854 13.771 70.7296 13.5383 70.6162 13.2725C70.5014 13.0065 70.4453 12.7204 70.4453 12.418C70.4453 12.1129 70.5029 11.8303 70.6162 11.5645C70.7848 11.1676 71.0663 10.8288 71.4258 10.5908C71.7854 10.3529 72.2075 10.2257 72.6387 10.2256ZM72.6377 10.752C72.3424 10.7486 72.0518 10.8268 71.7979 10.9775C71.5501 11.1231 71.3423 11.3314 71.1953 11.5791C71.0455 11.8297 70.9717 12.11 70.9717 12.418C70.9681 12.7127 71.0452 13.0031 71.1953 13.2568C71.3424 13.5047 71.55 13.7113 71.7979 13.8584C72.0519 14.009 72.3424 14.0871 72.6377 14.083C72.9317 14.0872 73.2227 14.0096 73.4775 13.8584C73.7261 13.7116 73.9338 13.5038 74.0801 13.2549C74.2311 13.003 74.3079 12.7118 74.3037 12.418C74.3037 12.1114 74.2299 11.8311 74.0801 11.5791C73.9331 11.3314 73.7253 11.1249 73.4775 10.9766C73.2227 10.8268 72.9317 10.7492 72.6377 10.752ZM72.8906 11.3809C72.9931 11.3846 73.0937 11.4126 73.1836 11.4619C73.2733 11.5112 73.3501 11.5808 73.4082 11.665C73.4807 11.7712 73.5169 11.898 73.5117 12.0264C73.516 12.1606 73.4785 12.293 73.4033 12.4043C73.3457 12.4909 73.2682 12.5629 73.1777 12.6143L73.5947 13.4043H73.1064L72.752 12.7178H72.3125V13.4043H71.8672V11.3809H72.8906ZM72.3096 12.3887H72.7207C72.7823 12.3887 72.847 12.3576 72.917 12.2988C72.9897 12.2372 73.0234 12.1491 73.0234 12.0273C73.0234 11.9057 72.9869 11.8202 72.917 11.7754C72.8443 11.7293 72.7854 11.708 72.7295 11.708H72.3096V12.3887ZM52.6934 9.03711H49.9531V6.81738H52.6914L52.6934 6.81641V9.03711Z" fill="var(--fill-0, white)" fill-opacity="0.8"/>
</g>
</svg>
